<svg version="1.2" xmlns="http://www.w3.org/2000/svg" viewBox="0 0 2000 2000" width="2000" height="2000">
	<style>
		.s0 { opacity: .99;fill: #af6864 } 
		.s1 { opacity: .99;fill: #af694e } 
		.s2 { opacity: .99;fill: #9f9a80 } 
		.s3 { opacity: .99;fill: #2f2f2d } 
		.s4 { opacity: .99;fill: #2d2e2a } 
	</style>
	<g id="Background">
		<path id="Path 0" class="s0" d="m972.34 1643.5c0.01 4.4 0.18 5.97 0.39 3.5 0.21-2.47 0.21-6.08 0-8-0.22-1.92-0.39 0.1-0.39 4.5z"/>
		<path id="Path 1" class="s0" d="m1809.5 1618.73c2.2 0.21 6.03 0.21 8.5 0 2.47-0.21 0.67-0.38-4-0.38-4.67 0-6.7 0.17-4.5 0.38z"/>
		<path id="Path 2" class="s0" d="m1694 1618.75c17.88 0.15 47.35 0.15 65.5 0 18.15-0.15 3.53-0.28-32.5-0.28-36.03 0-50.88 0.13-33 0.28z"/>
		<path id="Path 3" class="s0" d="m278 1618.75c14.57 0.16 37.98 0.16 52 0 14.02-0.16 2.1-0.29-26.5-0.28-28.6 0-40.07 0.12-25.5 0.28z"/>
		<path id="Path 4" class="s0" d="m111.5 1618.75c17.05 0.15 45.18 0.15 62.5 0 17.32-0.15 3.38-0.28-31-0.28-34.38 0-48.55 0.13-31.5 0.28z"/>
		<path id="Path 5" class="s0" d="m1838 1617.75c0 0.41 10.69 0.64 23.75 0.5 13.06-0.14 29.6-0.38 36.75-0.54 7.15-0.15-3.54-0.37-23.75-0.49-20.21-0.12-36.75 0.12-36.75 0.53z"/>
		<path id="Path 6" class="s0" d="m1613 1617.41c0.28 0.26 6.86 0.54 14.64 0.63 7.78 0.09 14.5-0.11 14.92-0.44 0.43-0.33-6.16-0.61-14.64-0.63-8.48-0.01-15.2 0.18-14.92 0.44z"/>
		<path id="Path 7" class="s0" d="m1911.34 1608.5c0.01 4.4 0.18 5.97 0.39 3.5 0.21-2.47 0.21-6.08 0-8-0.22-1.92-0.39 0.1-0.39 4.5z"/>
		<path id="Path 8" class="s0" d="m64.58 1602.5c-0.32 0.83-0.58 3.3-0.58 5.5 0 2.2 0.67 5.35 1.5 7 1.24 2.48 2.06 2.97 4.75 2.84l3.25-0.16c-5.28-0.6-6.34-1.46-7.41-3.93-0.86-1.99-1.22-5.09-0.93-8 0.27-2.61 0.38-4.75 0.25-4.75-0.13 0-0.5 0.67-0.83 1.5z"/>
		<path id="Path 9" class="s0" d="m1882.5 1600.74c2.75 0.2 7.47 0.2 10.5 0 3.03-0.2 0.78-0.37-5-0.37-5.78 0-8.25 0.17-5.5 0.37z"/>
		<path id="Path 10" class="s1" d="m1617.8 1600.96c-5.34 0.3-10.13 0.99-10.63 1.54-0.51 0.55-1.45 2.58-2.09 4.5-0.91 2.74-0.88 4.09 0.13 6.21 0.83 1.75 2.36 2.93 4.29 3.32 1.65 0.33 53.4 0.72 115 0.85 61.6 0.13 128.88 0.09 149.5-0.09l37.5-0.33-1-16.46c-219.32-0.06-287.37 0.17-292.7 0.46z"/>
		<path id="Path 11" class="s0" d="m332 1600.74c2.48 0.2 6.75 0.2 9.5 0 2.75-0.21 0.73-0.38-4.5-0.38-5.23 0-7.48 0.17-5 0.38z"/>
		<path id="Path 12" class="s1" d="m69.14 1600.76c-1.29 0.25-2.75 0.96-3.23 1.59-0.48 0.63-0.89 3.06-0.89 5.4-0.01 2.34 0.54 5.36 1.23 6.71 1 1.95 2.27 2.58 6.25 3.05 2.75 0.33 68 0.59 145 0.58 77-0.01 144.73-0.42 150.5-0.9 5.77-0.48 11.06-1.17 11.75-1.53 0.69-0.36 1.68-2.35 2.21-4.41 0.52-2.06 0.68-5.1 0.34-6.75-0.34-1.65-1.11-3.3-1.71-3.67-0.6-0.36-70.39-0.63-155.09-0.59-84.7 0.04-155.06 0.28-156.36 0.52z"/>
		<path id="Path 13" class="s0" d="m732.65 1590.5c-0.62 3.16-1 3.68-1.81 2.5-0.82-1.2-0.91-1.1-0.43 0.5 0.33 1.1 0.03 2.58-0.66 3.29-1 1.04-1 1.29 0 1.25 0.69-0.02 1.95-1.5 2.8-3.29 0.86-1.79 1.41-4.38 1.22-5.75-0.27-2.01-0.49-1.72-1.12 1.5z"/>
		<path id="Path 14" class="s2" d="m730.29 1580.74c0.12 8.39 0.32 15.25 0.46 15.25 0.14 0.01 1.2-3.25 2.36-7.24 1.58-5.42 1.94-8.51 1.43-12.25-0.38-2.75-0.77-5.52-0.87-6.15-0.09-0.64-0.51-0.98-0.92-0.75-0.41 0.22-1.18-0.61-1.71-1.85-0.66-1.55-0.9 2.53-0.75 12.99z"/>
		<path id="Path 15" class="s1" d="m1378 1561c1.38 0.44 5.2 0.81 8.5 0.83 3.3 0.02 6.9-0.36 8-0.83 1.28-0.55-1.78-0.85-8.5-0.83-6.71 0.02-9.6 0.32-8 0.83z"/>
		<path id="Path 16" class="s1" d="m811 1561c1.38 0.44 4.98 0.8 8 0.8 3.02 0 6.63-0.36 8-0.8 1.59-0.51-1.33-0.8-8-0.8-6.67 0-9.59 0.29-8 0.8z"/>
		<path id="Path 17" class="s3" d="m680 1559.98c-3.58 0.35-9.2 1.72-12.5 3.04-3.3 1.33-7.43 3.33-9.17 4.45-1.74 1.12-5.23 4.39-7.75 7.28-2.52 2.89-5.07 6.94-5.66 9-0.59 2.06-1.33 8.03-1.63 13.25-0.41 7.01-0.14 10.94 1.01 15 1.04 3.62 3.04 7.17 5.89 10.38 2.37 2.69 7.23 6.58 10.81 8.66 3.58 2.07 10.55 5.56 15.5 7.74 4.95 2.19 14.17 6.53 20.5 9.66 6.33 3.14 12.56 6.68 13.85 7.88 1.29 1.2 3.49 4.43 4.88 7.18 1.39 2.75 2.75 7.47 3.03 10.5 0.39 4.32 0.04 6.41-1.63 9.75-1.17 2.34-3.82 6.1-5.88 8.35-2.06 2.26-5.33 5.03-7.25 6.15-3.16 1.86-4.76 2.02-16.5 1.64-12.36-0.39-13.29-0.57-19-3.64-3.3-1.77-7.89-5.14-10.21-7.49-2.32-2.34-7.15-9.1-10.75-15.01-4.04-6.65-6.73-10.18-7.04-9.25-0.27 0.83-0.51 8.59-0.52 17.25l-0.03 15.75c9.73 2.88 15.7 4.61 19.55 5.7 3.85 1.1 11.27 2.47 16.5 3.04 6.73 0.75 12.56 0.73 20-0.04 7.2-0.75 12.23-1.87 16-3.58 3.02-1.37 7.52-3.88 10-5.57 2.48-1.7 6.34-5.44 8.58-8.32 2.25-2.88 4.94-6.81 5.98-8.73 1.49-2.75 1.88-5.44 1.8-12.5-0.05-4.95-0.8-11.47-1.67-14.5-0.88-3.03-3.4-7.86-5.64-10.75-2.23-2.89-5.74-6.31-7.8-7.61-2.06-1.3-7.13-4.06-11.25-6.14-4.13-2.07-11.33-5.25-16-7.06-4.67-1.81-12.1-5.17-16.5-7.47-4.4-2.3-9.55-5.37-11.44-6.82-1.89-1.46-4.25-4.45-5.23-6.65-1-2.25-1.79-6.41-1.8-9.5-0.01-3.03 0.43-7.19 0.98-9.25 0.54-2.06 2.23-5.18 3.74-6.92 1.51-1.75 5.45-4.43 8.75-5.97 3.3-1.54 8.7-3.1 12-3.46 4.51-0.49 7.49-0.2 12 1.21 3.3 1.03 7.67 3 9.7 4.38 2.04 1.38 6.2 5.43 9.24 9.01 3.04 3.58 6.2 8.53 7.01 11 0.82 2.5 2.27 4.76 3.26 5.09 1.16 0.38 1.9 0.03 2.12-1 0.17-0.87 0.28-6.54 0.22-12.59-0.05-6.05-0.31-12.24-0.57-13.75-0.46-2.62-1.02-2.87-11.73-5.3-6.19-1.4-13.95-2.76-17.25-3.03-3.3-0.27-7.8-0.62-10-0.78-2.2-0.17-6.92-0.01-10.5 0.34z"/>
		<path id="Path 18" fill-rule="evenodd" class="s4" d="m1484 1558.42c8.41 0.24 13.18 0.9 17.75 2.45 3.44 1.17 8.39 3.49 11 5.15 2.61 1.66 7.15 5.38 10.09 8.25 3.37 3.3 6.57 7.81 8.69 12.23 1.99 4.16 4.19 11.26 5.42 17.5 1.14 5.78 2.18 12.3 2.55 18.5l-98.5 0.5 0.45 3.25c0.25 1.79 0.7 6.62 1.01 10.75 0.3 4.12 1.48 10.87 2.62 15 1.13 4.12 3.48 9.97 5.22 13 1.74 3.03 5.64 7.99 8.68 11.04 3.12 3.13 8.35 6.96 12.02 8.79 3.92 1.96 9.08 3.59 13 4.11 3.58 0.47 9.88 0.48 14 0.04 4.13-0.45 10.42-1.92 14-3.26 3.58-1.34 9.76-4.08 13.75-6.08 3.99-2 8.15-3.64 9.25-3.64q2 0 2 2c0 1.1-2.18 4.36-4.85 7.25-2.67 2.89-8.41 7.71-12.75 10.71-4.35 3-10.82 6.47-14.4 7.72-3.58 1.24-10.33 2.78-15 3.41-4.67 0.63-12.33 0.97-17 0.76-7.89-0.37-9.29-0.78-19.5-5.81-8.71-4.28-12.38-6.78-17.61-11.98-5.4-5.36-7.63-8.66-12.22-18.06-4.55-9.32-5.91-13.3-7.14-21-0.84-5.22-1.53-12.2-1.54-15.5 0-3.3 0.68-10.05 1.53-15 0.84-4.95 2.48-11.93 3.65-15.5 1.16-3.58 3.5-9.43 5.18-13 1.98-4.19 5.57-9.12 10.11-13.86 3.87-4.05 9.74-8.94 13.04-10.86 3.3-1.93 8.25-4.4 11-5.48 2.75-1.09 6.8-2.37 9-2.84 2.2-0.48 9.17-0.72 15.5-0.54zm-25.5 20.3c-2.75 2.75-6.41 7.65-8.14 10.89-1.73 3.24-4.2 9.13-5.5 13.1-1.3 3.96-2.14 7.42-1.86 7.68 0.28 0.26 15.2 0.62 33.17 0.79 17.97 0.18 32.95 0.1 33.29-0.18 0.34-0.28 0.11-4.1-0.52-8.5-0.64-4.4-1.98-10.25-2.98-13-1.01-2.75-4-7.44-6.65-10.42-2.87-3.23-6.82-6.35-9.81-7.74-3.4-1.57-6.76-2.31-10.5-2.27-3.53 0.03-7.29 0.87-10.5 2.34-2.75 1.27-7.25 4.55-10 7.31z"/>
		<path id="Path 19" class="s4" d="m1527.42 1687.69c-3.81 3.56-9.62 7.95-12.92 9.76-3.3 1.8-8.25 4.12-11 5.15-2.75 1.03-4.33 2.01-3.5 2.19 0.82 0.17 3.97-0.65 7-1.83 3.03-1.19 8.65-4.34 12.5-7.01 3.85-2.67 9.03-6.89 11.5-9.38 2.47-2.49 4.24-4.72 3.92-4.94-0.32-0.23-3.7 2.49-7.5 6.06z"/>
		<path id="Path 20" fill-rule="evenodd" class="s3" d="m1485 1559.68c3.58 0.26 9.2 1.13 12.5 1.92 3.3 0.8 8.25 2.53 11 3.84 2.75 1.32 7.43 4.57 10.4 7.23 2.97 2.66 6.97 7.3 8.89 10.33 1.92 3.03 4.28 7.75 5.23 10.5 0.96 2.75 2.47 9.84 3.36 15.75 0.89 5.91 1.62 10.97 1.62 11.25 0 0.28-22.16 0.5-98.5 0.49l0.7 9.75c0.38 5.37 1.62 13.7 2.75 18.51 1.13 4.81 2.76 10.44 3.62 12.5 0.86 2.06 3.94 6.67 6.83 10.25 3.06 3.78 8.17 8.43 12.19 11.11 3.8 2.54 8.71 5.23 10.91 5.98 2.51 0.86 8.27 1.35 15.5 1.32 8.32-0.04 13.02-0.56 17-1.87 3.03-1 9.33-3.73 14-6.07 4.67-2.34 9.51-4.53 10.75-4.86 1.46-0.4 2.25-0.17 2.25 0.64 0 0.69-3.27 4.4-7.25 8.25-3.99 3.86-9.84 8.47-13 10.25-3.16 1.79-8.56 4.45-12 5.91-5.65 2.4-7.78 2.7-38.25 3.63l-11-5.39c-8.74-4.29-12.34-6.73-17.51-11.9-5.09-5.09-7.63-8.79-11.67-17-2.85-5.78-5.68-12.75-6.3-15.5-0.61-2.75-1.52-8.83-2.01-13.5-0.66-6.34-0.49-11.3 0.66-19.5 0.85-6.05 2.43-13.7 3.53-17 1.09-3.3 3.53-9.38 5.43-13.5q3.45-7.5 9.16-13.37c3.14-3.23 8.63-7.76 12.21-10.08 3.58-2.32 9.42-5.27 13-6.57 3.58-1.29 8.97-2.67 12-3.06 3.03-0.39 8.42-0.5 12-0.24zm-26.5 19.04c-2.75 2.75-6.41 7.65-8.14 10.89-1.73 3.24-4.2 9.13-5.5 13.1-1.3 3.96-2.14 7.42-1.86 7.68 0.28 0.26 15.2 0.62 33.17 0.79 17.97 0.18 32.95 0.1 33.29-0.18 0.34-0.28 0.11-4.1-0.52-8.5-0.64-4.4-1.98-10.25-2.98-13-1.01-2.75-4-7.44-6.65-10.42-2.87-3.23-6.82-6.35-9.81-7.74-3.4-1.57-6.76-2.31-10.5-2.27-3.53 0.03-7.29 0.87-10.5 2.34-2.75 1.27-7.25 4.55-10 7.31z"/>
		<path id="Path 21" fill-rule="evenodd" class="s4" d="m1478.5 1567.02c1.1-0.03 5.04 0.85 8.75 1.96 5.42 1.62 7.66 2.96 11.35 6.77 2.54 2.61 5.91 7.45 7.5 10.75 1.59 3.3 3.24 8.11 3.65 10.68 0.41 2.57 1.09 4.48 1.5 4.25 0.41-0.24 0.97 0.24 1.25 1.07 0.28 0.83 0.5 2.85 0.5 4.5 0 1.65-0.67 3.67-1.5 4.5-1.3 1.3-6.14 1.43-35.75 0.95-20.38-0.32-34.35-0.93-34.5-1.5-0.14-0.52 1.15-5.11 2.86-10.2 1.71-5.09 4.15-11.05 5.42-13.25 1.26-2.2 4.93-6.72 8.14-10.05 4.79-4.98 6.98-6.44 12.33-8.21 3.58-1.19 7.4-2.18 8.5-2.22zm-20 11.7c-2.75 2.75-6.41 7.65-8.14 10.89-1.73 3.24-4.2 9.13-5.5 13.1-1.3 3.96-2.14 7.42-1.86 7.68 0.28 0.26 15.2 0.62 33.17 0.79 17.97 0.18 32.95 0.1 33.29-0.18 0.34-0.28 0.11-4.1-0.52-8.5-0.64-4.4-1.98-10.25-2.98-13-1.01-2.75-4-7.44-6.65-10.42-2.87-3.23-6.82-6.35-9.81-7.74-3.4-1.57-6.76-2.31-10.5-2.27-3.53 0.03-7.29 0.87-10.5 2.34-2.75 1.27-7.25 4.55-10 7.31z"/>
		<path id="Path 22" fill-rule="evenodd" class="s4" d="m1248.05 1558.28c15.36 0.22 15.64 0.26 22 3.46 3.55 1.79 9.08 5.61 12.3 8.5 3.49 3.14 6.81 7.28 8.23 10.26 1.31 2.75 2.85 8.15 3.43 12 0.58 3.85 1.3 24.55 1.6 46 0.3 21.45 0.97 41.47 1.48 44.5q0.94 5.5 3.45 8c2.21 2.2 3.37 2.5 9.72 2.5 5.59 0 7.28 0.34 7.55 1.5 0.19 0.83-1.16 2.81-2.98 4.41-1.83 1.6-5.8 4.03-8.83 5.4-3.71 1.67-7.94 2.63-13 2.94-6.66 0.4-7.89 0.19-10.95-1.9-1.89-1.29-4.97-4.38-6.84-6.85-1.87-2.47-3.7-5.79-4.06-7.37-0.36-1.58-0.87-3.02-1.15-3.2-0.28-0.18-4.33 2.4-9 5.74-4.67 3.34-11.2 7.37-14.5 8.95-3.3 1.58-8.7 3.32-12 3.87-3.3 0.55-8.59 1-11.75 1-3.16 0.01-8.11-0.5-11-1.11-2.89-0.62-6.83-1.91-8.75-2.87-1.92-0.96-5.71-4.17-8.4-7.13-2.7-2.96-5.85-7.41-7-9.88-1.72-3.69-2.1-6.4-2.08-15 0.02-8.74 0.4-11.3 2.25-15.25 1.23-2.61 4.37-6.81 6.98-9.32 2.61-2.51 7.45-5.85 10.75-7.42 3.3-1.57 11.85-4.62 19-6.78 7.15-2.16 20.32-5.91 45.53-12.73l-0.04-8c-0.01-4.4-0.48-11.15-1.03-15-0.55-3.85-2.07-9.25-3.38-12-1.31-2.75-4.34-6.68-6.73-8.74-3.37-2.89-5.7-3.96-10.35-4.74-3.3-0.55-8.47-1.01-11.5-1.01-3.03 0-7.19 0.45-9.25 1-2.06 0.54-5.38 2.45-7.37 4.24-2.13 1.91-5.17 6.54-7.39 11.25-2.07 4.4-4.38 8.57-5.13 9.26-0.75 0.7-4.18 1.6-7.62 2-5.21 0.62-6.27 0.49-6.32-0.76-0.04-0.83 0.01-4.87 0.1-9 0.09-4.42 0.84-9.09 1.82-11.37 1.06-2.48 3.27-4.92 6.16-6.82 2.47-1.62 7.65-4.47 11.5-6.34 3.85-1.86 9.7-4.07 13-4.9 4.31-1.08 10.38-1.44 21.55-1.29zm1.45 77.94c-6.05 1.67-14.15 4.34-18 5.92-4.4 1.81-8.58 4.45-11.27 7.12-2.72 2.71-4.85 6.05-5.88 9.24q-1.6 5-1.22 12c0.28 5.18 0.97 7.85 2.63 10.25 1.23 1.79 4.15 4.38 6.49 5.77 2.63 1.56 6.54 2.75 10.25 3.14 3.3 0.34 8.92 0.09 12.5-0.55 3.64-0.66 10.02-2.95 14.5-5.22 4.4-2.23 8.33-4.58 8.73-5.22 0.41-0.64 0.69-6.34 0.63-12.67-0.06-6.33-0.39-16.45-0.74-22.49-0.49-8.72-0.93-11.02-2.12-11.14-0.83-0.09-2.4 0.06-3.5 0.33-1.1 0.27-6.95 1.85-13 3.52z"/>
		<path id="Path 23" class="s4" d="m1255.5 1696.13c-1.65 1.08-5.7 3.37-9 5.08-3.3 1.7-5.44 3.25-4.75 3.44 0.69 0.19 3.84-1 7-2.66 3.16-1.65 7.1-4.11 8.75-5.46 1.65-1.35 2.55-2.44 2-2.42-0.55 0.02-2.35 0.93-4 2.02z"/>
		<path id="Path 24" fill-rule="evenodd" class="s3" d="m1245 1559.15c3.58-0.06 9.54 0.33 13.25 0.87 3.71 0.54 9.11 2.17 12 3.62 2.89 1.45 7.22 4.27 9.64 6.25 2.41 1.99 5.67 5.52 7.25 7.86 1.57 2.34 3.53 6.84 4.34 10 0.84 3.27 1.91 15.01 2.49 27.25 0.56 11.82 1.04 31.4 1.07 43.5 0.03 12.1 0.44 24.02 0.92 26.5 0.6 3.06 1.86 5.38 3.96 7.25 2.75 2.46 3.85 2.75 17.58 2.8l-3.5 2.97c-1.92 1.63-5.75 4.09-8.5 5.48-4.15 2.1-6.44 2.53-22 2.59l-3.75-4.04c-2.06-2.23-4.52-5.29-5.47-6.8-0.95-1.51-1.99-4.1-2.32-5.75-0.33-1.71-1.21-2.98-2.02-2.95-0.79 0.03-4.14 2.13-7.44 4.66-3.3 2.53-9.83 6.78-23 14.29h-15.5c-14.94 0-15.66-0.1-20-2.63-2.47-1.45-6.33-4.6-8.57-7-2.23-2.41-5-6.84-6.14-9.87-1.15-3.03-2.41-7.53-2.81-10-0.49-3.05-0.17-6.91 1.01-12 0.96-4.13 2.78-9.08 4.06-11 1.28-1.93 4.27-4.92 6.64-6.66 2.37-1.74 7.46-4.57 11.31-6.3 3.85-1.73 12.4-4.67 19-6.52 6.6-1.85 16.95-4.72 23-6.36 6.05-1.64 12.8-3.38 19-4.75l-0.08-14.46c-0.05-10.54-0.51-15.8-1.71-19.45-1.05-3.18-3.57-7.11-6.93-10.78-4.84-5.29-5.78-5.87-11.28-6.85-3.3-0.59-10.35-0.92-15.67-0.72-8.21 0.3-10.05 0.68-12.16 2.53-1.36 1.19-4.31 4.34-6.54 7-2.24 2.65-4.81 6.84-5.71 9.32-0.9 2.47-2.6 5.31-3.78 6.29-1.42 1.19-3.74 1.78-11.64 1.71l0.02-5.25c0.02-2.89 0.5-7.28 1.07-9.75 0.57-2.48 2.02-5.55 3.22-6.83 1.2-1.28 4.66-3.84 7.69-5.68 3.03-1.84 8.88-4.57 13-6.06 4.13-1.5 9.97-3.05 13-3.45 3.03-0.39 8.42-0.77 12-0.83zm4.5 77.07c-6.05 1.67-14.15 4.34-18 5.92-4.4 1.81-8.58 4.45-11.27 7.12-2.72 2.71-4.85 6.05-5.88 9.24q-1.6 5-1.22 12c0.28 5.18 0.97 7.85 2.63 10.25 1.23 1.79 4.15 4.38 6.49 5.77 2.63 1.56 6.54 2.75 10.25 3.14 3.3 0.34 8.92 0.09 12.5-0.55 3.64-0.66 10.02-2.95 14.5-5.22 4.4-2.23 8.33-4.58 8.73-5.22 0.41-0.64 0.69-6.35 0.63-12.67-0.06-6.33-0.39-16.45-0.74-22.49-0.49-8.72-0.93-11.02-2.12-11.14-0.83-0.09-2.4 0.06-3.5 0.33-1.1 0.27-6.95 1.85-13 3.52z"/>
		<path id="Path 25" fill-rule="evenodd" class="s4" d="m1266.95 1630.3c0.8 0.11 1.77 1.33 2.15 2.7 0.39 1.38 0.75 12.4 0.9 46.5l-5.75 3.57c-3.16 1.96-7.78 4.37-10.25 5.35-2.65 1.05-8.4 1.99-14 2.3-5.99 0.33-11.16 0.07-14-0.7-3.02-0.82-5.79-2.6-8.42-5.37-2.16-2.28-4.52-5.61-5.25-7.4-0.73-1.79-1.34-5.39-1.34-8-0.01-2.61 0.67-7 1.5-9.75 0.84-2.75 2.48-6.35 3.64-8 1.17-1.65 3.98-4.5 6.25-6.33 3-2.42 7.94-4.52 18.12-7.72 7.7-2.43 16.47-5.07 19.5-5.87 3.03-0.81 6.15-1.38 6.95-1.28zm-17.45 5.92c-6.05 1.67-14.15 4.34-18 5.92-4.4 1.81-8.58 4.45-11.27 7.12-2.72 2.71-4.85 6.05-5.88 9.24q-1.6 5-1.22 12c0.28 5.18 0.97 7.85 2.63 10.25 1.23 1.79 4.15 4.38 6.49 5.77 2.63 1.56 6.54 2.75 10.25 3.14 3.3 0.34 8.92 0.09 12.5-0.55 3.64-0.66 10.02-2.95 14.5-5.22 4.4-2.23 8.33-4.58 8.73-5.22 0.41-0.64 0.69-6.34 0.63-12.67-0.06-6.32-0.39-16.45-0.74-22.49-0.49-8.72-0.93-11.02-2.12-11.14-0.83-0.09-2.4 0.06-3.5 0.33-1.1 0.27-6.95 1.85-13 3.52z"/>
		<path id="Path 26" class="s4" d="m881 1561.39c-6.33 1.79-14.76 4.47-18.75 5.94-4.59 1.69-7.25 3.22-7.25 4.17 0 0.86 2.65 2.74 6.25 4.41 4.9 2.28 6.68 3.74 8.25 6.75 1.92 3.7 2 5.79 2 55.52 0 50.76-0.04 51.72-2.08 54.5-1.14 1.55-4.74 4.17-8 5.82-3.26 1.65-6.06 3.67-6.23 4.5-0.16 0.83 0.73 1.87 2 2.33 1.27 0.46 12.36 1.14 24.65 1.5 19.56 0.59 22.29 0.48 22-0.83-0.25-1.11 0.7-1.57 3.66-1.77 2.2-0.14 5.01-0.48 6.25-0.75 1.89-0.4 2.05-0.73 1-2.03-0.69-0.85-2.83-2.05-4.75-2.65-1.92-0.61-4.59-1.82-5.92-2.7-1.33-0.88-3.08-3.18-3.89-5.1-1.2-2.88-1.62-14.83-2.32-67-0.47-34.93-1.09-64.06-1.36-64.75-0.28-0.69-1.3-1.22-2.26-1.19-0.96 0.04-6.92 1.53-13.25 3.33z"/>
		<path id="Path 27" class="s3" d="m884 1562.11c-3.58 1.06-10.95 3.38-16.38 5.16-5.44 1.77-10.05 3.57-10.25 3.98-0.21 0.41 2.33 2.1 5.63 3.75 5.06 2.53 6.35 3.75 8.25 7.75 2.24 4.73 2.25 4.95 2.25 55.25 0 49.18-0.05 50.6-2.08 54.5-1.25 2.42-3.43 4.66-5.5 5.67-1.88 0.92-4.66 2.15-6.17 2.75-2.2 0.86-2.5 1.33-1.5 2.33 0.92 0.92 6.25 1.22 20.25 1.13 10.97-0.07 22.17-0.68 26.5-1.46l7.5-1.35c-7.61-3.15-10.76-5.35-11.91-6.91-1.15-1.57-2.43-5.17-2.85-8-0.42-2.84-1-30.58-1.28-61.66-0.29-31.07-0.74-58.41-0.99-60.75-0.4-3.64-0.79-4.24-2.72-4.16-1.24 0.05-5.17 0.96-8.75 2.02z"/>
		<path id="Path 28" class="s4" d="m673 1559.38c-2.48 0.69-7.2 2.55-10.5 4.13-3.3 1.58-8.04 4.93-10.54 7.44-2.5 2.5-5.53 6.57-6.73 9.05-1.2 2.47-2.7 7.2-3.32 10.5-0.62 3.3-0.91 9.15-0.65 13 0.27 3.85 1.36 9.02 2.42 11.5 1.05 2.47 3.92 6.69 6.37 9.37 2.45 2.67 6.25 5.92 8.45 7.21 2.2 1.28 13 6.54 24 11.67 11 5.13 22.14 10.77 24.75 12.54 2.82 1.9 5.56 4.84 6.75 7.21 1.1 2.2 2.43 6.14 2.96 8.75 0.57 2.86 0.6 6.14 0.06 8.25-0.49 1.92-2.86 5.97-5.26 9-2.54 3.19-6.24 6.44-8.82 7.74-3.48 1.75-6.18 2.24-12.44 2.25-4.4 0.01-10.7-0.69-14-1.56-3.3-0.87-7.99-2.78-10.43-4.26-2.44-1.47-6.37-4.92-8.75-7.67-2.38-2.75-6.24-8.52-8.57-12.82-2.34-4.3-5.01-8.8-5.93-10-1.38-1.8-1.91-1.95-3-0.88-0.89 0.89-1.42 4.92-1.64 12.5-0.18 6.16 0.05 14.35 0.5 18.2l0.82 7c18.6 4.8 28.73 7.01 34.5 8.02 9.27 1.62 11.55 1.68 19.5 0.57 4.95-0.69 11.02-1.73 13.5-2.31 2.48-0.57 7.14-2.45 10.37-4.16 3.23-1.72 8.47-5.82 11.65-9.12 3.38-3.5 6.93-8.5 8.53-12 2.51-5.5 2.7-6.75 2.25-15-0.26-4.95-1.29-11.7-2.28-15-1.48-4.93-2.89-7.07-7.93-12-3.36-3.3-8.81-7.43-12.11-9.17-3.29-1.75-11.15-5.29-17.48-7.87-6.33-2.59-14.88-6.41-19-8.5-4.13-2.09-9.08-4.99-11-6.44-1.92-1.45-4.28-3.85-5.24-5.33-1.29-1.99-1.74-4.76-1.74-10.69 0.01-6.45 0.45-8.77 2.27-12 1.47-2.59 4.19-5.14 7.74-7.24 3.51-2.08 7.44-3.47 10.97-3.88 3.02-0.35 7.98-0.33 11 0.04 3.02 0.37 7.3 1.72 9.5 3 2.2 1.28 6.48 4.98 9.5 8.22 3.02 3.24 7.08 9.04 9 12.88 1.92 3.84 4.17 7.1 5 7.26 0.9 0.16 1.5-0.48 1.5-1.6q0-1.86-1.75-1.52c-1.32 0.26-2.12-0.83-3.26-4.41-0.9-2.81-3.78-7.41-7.05-11.25-3.04-3.58-7.2-7.63-9.24-9.01-2.03-1.38-6.4-3.35-9.7-4.38-4.51-1.41-7.49-1.7-12-1.21-3.3 0.36-8.7 1.92-12 3.46-3.3 1.54-7.24 4.22-8.75 5.97-1.51 1.74-3.2 4.86-3.74 6.92-0.55 2.06-0.99 6.22-0.98 9.25 0.01 3.09 0.8 7.25 1.8 9.5 0.98 2.2 3.34 5.19 5.23 6.65 1.89 1.45 7.04 4.52 11.44 6.82 4.4 2.3 11.83 5.66 16.5 7.47 4.67 1.81 11.87 4.99 16 7.06 4.12 2.08 9.19 4.84 11.25 6.14 2.06 1.3 5.57 4.72 7.8 7.61 2.24 2.89 4.76 7.72 5.64 10.75 0.87 3.02 1.62 9.55 1.67 14.5 0.08 7.06-0.31 9.75-1.8 12.5-1.04 1.92-3.73 5.85-5.98 8.73-2.24 2.88-6.1 6.62-8.58 8.32-2.48 1.69-6.98 4.2-10 5.57-3.77 1.71-8.8 2.83-16 3.58-7.44 0.77-13.27 0.79-20 0.04-5.23-0.57-12.65-1.94-16.5-3.04-3.85-1.09-9.82-2.82-13.27-3.84l-6.28-1.86c0.04-24.41 0.28-32.18 0.55-33 0.31-0.93 3 2.6 7.04 9.25 3.6 5.91 8.43 12.67 10.75 15.01 2.32 2.35 6.91 5.72 10.21 7.49 5.71 3.07 6.64 3.25 19 3.64 11.74 0.38 13.34 0.22 16.5-1.64 1.92-1.12 5.19-3.89 7.25-6.15 2.06-2.25 4.71-6.01 5.88-8.35 1.67-3.34 2.02-5.43 1.63-9.75-0.28-3.03-1.64-7.75-3.03-10.5-1.39-2.75-3.59-5.98-4.88-7.18-1.29-1.2-7.52-4.74-13.85-7.88-6.33-3.13-15.55-7.47-20.5-9.66-4.95-2.18-11.92-5.67-15.5-7.74-3.58-2.08-8.44-5.97-10.81-8.66-2.85-3.21-4.85-6.76-5.89-10.38-1.15-4.06-1.42-7.99-1.01-15 0.3-5.23 1.04-11.19 1.63-13.25 0.59-2.06 3.14-6.11 5.66-9 2.52-2.89 6.01-6.16 7.75-7.28 1.74-1.12 5.87-3.11 9.17-4.43 3.3-1.33 9.15-2.69 13-3.04 3.85-0.35 11.27-0.3 16.5 0.11 5.23 0.41 14.56 1.91 20.75 3.32 8.6 1.96 11.34 2.98 11.63 4.32 0.32 1.44 0.41 1.4 0.53-0.25 0.12-1.69-1.29-2.42-9.13-4.73-5.11-1.5-12.43-3.18-16.28-3.73-3.85-0.55-11.5-0.98-17-0.95-5.5 0.02-12.02 0.61-14.5 1.29z"/>
		<path id="Path 29" class="s4" d="m1013.5 1557.96c-2.75 0.41-7.25 1.47-10 2.37-2.75 0.9-8.15 3.51-12 5.8-3.85 2.29-9.14 6.12-11.75 8.52-2.61 2.39-5.09 4.17-5.5 3.96-0.41-0.22-1.08-3.93-1.49-8.25-0.4-4.33-0.97-8.87-1.25-10.11q-0.5-2.26-2.76-2.26c-1.24-0.01-7.2 1.36-13.25 3.03-6.05 1.67-14.28 4.26-18.28 5.76-5.28 1.97-7.28 3.2-7.25 4.47 0.01 0.96 0.59 2.08 1.28 2.49 0.69 0.4 3.24 1.41 5.67 2.25 2.43 0.83 5.24 2.63 6.25 4.01 1.14 1.55 2.18 5.53 2.74 10.5 0.5 4.4 0.82 28.03 0.72 52.5-0.17 39.72-0.37 44.9-1.91 48.25-1.02 2.21-3.05 4.43-4.97 5.42-1.79 0.91-4.55 1.93-6.14 2.25-1.58 0.32-3.38 1.35-4 2.3-0.84 1.3-0.79 2.04 0.19 3 0.97 0.96 8.17 1.35 29 1.57 21.4 0.23 28.13 0 29.6-1 1.23-0.83 1.67-1.91 1.25-3.04-0.36-0.96-1.66-2.17-2.9-2.68-1.24-0.51-3.49-1.19-5-1.5-1.51-0.31-3.76-1.62-5-2.91-1.24-1.29-2.59-4.22-3-6.5-0.41-2.29-1.04-24.3-1.38-48.91l-0.64-44.75c13.07-11.63 18.65-15.85 20.82-16.89 2.29-1.09 7.11-2.09 11.45-2.37 4.12-0.27 9.98 0.01 13 0.63 3.91 0.79 6.77 2.2 9.89 4.87 2.41 2.07 5.42 5.56 6.67 7.76 1.26 2.2 2.78 6.7 3.39 10 0.61 3.3 1.37 21.53 1.69 40.5 0.39 22.34 0.21 37.67-0.49 43.5-0.74 6.12-1.66 9.6-2.87 10.86-0.98 1.03-4.59 3.17-8.03 4.75-3.44 1.59-6.25 3.34-6.25 3.89 0 0.55 0.79 1.28 1.75 1.63 0.96 0.35 12.78 0.86 26.25 1.14 13.47 0.28 26.19 0.22 28.25-0.13 2.38-0.41 3.75-1.19 3.75-2.14 0-0.88-3.33-3.17-8-5.5l-8-4c-0.01-18.21-0.49-40.38-1.06-61l-1.05-37.5c11.32-10.77 16.41-14.69 18.61-15.66 2.2-0.97 7.37-2.12 11.5-2.56 4.12-0.44 10.2-0.48 13.5-0.09 4.46 0.52 6.9 1.44 9.5 3.58 1.92 1.58 4.99 5.09 6.8 7.8 1.82 2.71 3.75 6.51 4.31 8.43 0.55 1.92 1.26 17.67 1.58 35 0.33 17.33 0.22 37.8-0.23 45.5-0.68 11.7-1.16 14.49-2.89 16.96-1.27 1.81-4.01 3.68-7.07 4.81-2.75 1.02-5.67 2.5-6.5 3.28-1.23 1.18-1.26 1.66-0.2 2.69 0.95 0.93 7.98 1.34 26.5 1.57 13.86 0.18 27.11 0.06 29.45-0.25 3.16-0.42 4.25-1.01 4.27-2.31 0.01-0.96-0.56-2.32-1.25-3.02-0.7-0.69-2.17-1.24-3.27-1.22-1.1 0.03-3.58-0.98-5.5-2.25-1.92-1.26-4.28-3.86-5.23-5.77-1.51-3.06-1.85-9.28-2.75-49.99-0.56-25.58-1.47-48.64-2.02-51.25-0.55-2.61-2.52-7.79-4.37-11.5-1.95-3.89-5.23-8.42-7.75-10.69-2.41-2.17-6.85-5.07-9.88-6.46-4.39-2.01-7.52-2.6-15.5-2.92-5.9-0.24-12.26 0.1-15.5 0.83-3.03 0.68-7.97 2.34-11 3.68-3.03 1.34-7.97 4.31-11 6.61-3.03 2.29-7.64 6.09-10.25 8.44-4.02 3.61-5 4.07-6.38 3.01-0.89-0.69-3.1-3.5-4.89-6.25-1.8-2.75-5.68-6.68-8.62-8.74-2.95-2.06-7.83-4.59-10.86-5.63-3.03-1.04-8.2-2.12-11.5-2.39-3.3-0.28-8.25-0.18-11 0.22z"/>
		<path id="Path 30" class="s4" d="m976.87 1587.75l-7.11 6.75c1.65 90.2 1.92 95.36 3.49 97.79 0.96 1.49 2.09 2.5 2.5 2.23 0.41-0.26 0.25-1.05-0.36-1.75-0.61-0.7-1.4-2.85-1.77-4.77-0.36-1.92-0.91-23.75-1.23-48.5l-0.58-45c11.38-10.43 14.12-13.47 13.43-13.48-0.69-0.01-4.45 3.02-8.37 6.73zm170.17-9.75c-0.03 0.28 0.85 3.09 1.95 6.25 1.76 5.03 2.13 9.85 2.95 38.5 0.52 18.01 0.88 39.28 0.8 47.25-0.09 8.56 0.33 16.14 1.02 18.5 0.64 2.2 2.64 5.47 4.45 7.27 2.07 2.06 4.95 3.63 7.79 4.26 2.47 0.55 4.72 0.77 5 0.49 0.28-0.27-0.17-0.69-1-0.93-0.83-0.23-2.74-0.69-4.25-1.01-1.51-0.32-4.13-1.82-5.81-3.33-1.69-1.51-3.49-4.1-4-5.75-0.51-1.65-1.38-23.7-1.93-49-0.55-25.3-1.46-48.14-2.01-50.75-0.55-2.61-1.88-6.44-2.96-8.5-1.07-2.06-1.97-3.53-2-3.25z"/>
		<path id="Path 31" class="s3" d="m1010.5 1560.02c-2.2 0.44-6.48 1.78-9.5 2.97-3.02 1.19-7.08 3.14-9 4.32-1.92 1.18-5.98 4.44-9 7.25-3.02 2.8-6.63 5.43-8 5.84-1.38 0.42-2.84 0.38-3.27-0.07-0.42-0.46-1.09-5.05-1.5-10.21-0.54-6.98-1.11-9.52-2.23-9.89-0.83-0.28-6 0.71-11.5 2.19-5.5 1.48-13.49 3.79-17.75 5.14-4.26 1.34-7.75 2.78-7.75 3.19 0 0.41 1.46 1.33 3.25 2.05 1.79 0.71 4.38 1.86 5.75 2.54 1.38 0.69 3.51 2.8 4.75 4.7 1.24 1.9 2.59 5.93 3 8.96 0.41 3.03 0.75 25.3 0.75 49.5 0 24.2-0.34 46.14-0.75 48.75-0.55 3.51-1.67 5.67-4.25 8.25-1.92 1.92-4.74 3.76-6.25 4.07-1.51 0.31-3.88 1.05-5.25 1.64l-2.5 1.07c4.65 1.55 16.13 2.05 28.5 2.11 12.38 0.06 24.19-0.23 26.25-0.64 2.26-0.45 3.62-1.25 3.41-2-0.19-0.69-2.1-1.7-4.25-2.25-2.15-0.55-4.62-1.45-5.48-2-0.87-0.55-2.67-2.5-4-4.34l-2.43-3.33-1.66-95.33c6.71-6.72 11.36-10.73 14.66-13.25 3.3-2.52 7.58-5.26 9.5-6.09 2.24-0.96 6.93-1.53 13-1.58 6.66-0.06 10.84 0.43 14 1.62 2.61 0.98 6.28 3.6 8.75 6.25 2.34 2.5 5.15 6.35 6.25 8.55 1.1 2.2 2.45 7.71 2.99 12.25 0.55 4.54 1 25.46 1 46.5 0.01 29.27-0.3 39.01-1.3 41.5-0.72 1.79-2.86 4.47-4.75 5.97-1.89 1.5-3.78 2.74-4.19 2.75-0.41 0.02-1.99 0.54-3.5 1.16l-2.75 1.12c4.65 1.46 15.53 2.19 27.19 2.57 19.65 0.63 21.23 0.55 21.75-1.07 0.47-1.47 1.07-1.6 3.81-0.78 1.79 0.54 3.37 0.87 3.51 0.75 0.14-0.12-2.56-1.64-6-3.37-3.44-1.74-7.08-3.76-8.08-4.5-1.68-1.25-1.91-5.06-3.12-50.85l-1.3-49.5c10.55-10.76 15.67-14.73 19.24-16.55 5.07-2.58 7.55-3.16 16-3.68 7.98-0.5 10.91-0.29 14.5 1.03 2.47 0.91 6.37 3.58 8.65 5.93 2.28 2.35 5.4 6.74 6.93 9.77 2.72 5.39 2.79 5.99 3.67 30.5 0.49 13.75 0.61 33.78 0.26 44.5-0.34 10.72-1.04 21.3-1.55 23.5-0.51 2.2-2.18 5.23-3.7 6.74-1.52 1.5-4.67 3.19-7.01 3.75-2.34 0.55-4.47 1.46-4.75 2.01-0.28 0.55 0.96 1.33 2.75 1.73 1.79 0.4 13.15 0.64 25.25 0.54 12.1-0.1 23.69-0.43 25.75-0.73 2.06-0.3 3.75-0.99 3.75-1.54 0-0.55-1.91-1.31-4.25-1.69-2.87-0.47-5.49-1.84-8.07-4.25-2.36-2.2-4.21-5.09-4.85-7.56-0.6-2.29-1.2-20.48-1.42-42.5-0.2-21.17-0.79-43.22-1.3-49-0.56-6.36-1.7-12.27-2.88-15-1.08-2.47-3.82-6.86-6.09-9.75-2.59-3.29-6.01-6.19-9.14-7.75-2.75-1.37-7.81-3.23-11.25-4.12-4.35-1.13-8.37-1.45-13.25-1.05-3.85 0.32-10.6 1.7-15 3.07-4.4 1.37-10.03 3.94-12.5 5.7-2.47 1.76-7.76 6.06-11.75 9.55-3.99 3.49-7.81 6.12-8.5 5.84-0.69-0.28-2.83-2.81-4.75-5.63-1.92-2.82-4.85-6.45-6.5-8.08-1.65-1.63-5.14-4.04-7.75-5.37-2.61-1.33-7.34-3.09-10.5-3.92-3.16-0.82-8.23-1.45-11.25-1.39-3.02 0.07-7.3 0.48-9.5 0.92z"/>
		<path id="Path 32" class="s4" d="m1363.1 1532.75c-0.81 2.61-0.92 7.55-0.38 16.25l0.78 12.5c10.46 0.39 13.31 0.16 13.09-0.25-0.23-0.41-2.93-0.64-6-0.5-5.06 0.23-5.64 0.04-6.15-2-0.31-1.24-0.39-8.44-0.18-16 0.21-7.56 0.3-13.75 0.19-13.75-0.11 0-0.71 1.69-1.35 3.75z"/>
		<path id="Path 33" class="s4" d="m1354.08 1529.75c-1.23 2.61-4.34 8.34-6.91 12.73-2.57 4.39-6.13 9.46-7.92 11.25-1.79 1.8-6.4 4.85-10.25 6.77-3.85 1.92-7.91 4.51-9.02 5.75-1.11 1.24-2.01 2.59-2 3 0.01 0.41 0.7 1.42 1.52 2.25 1.1 1.1 3.78 1.5 10 1.5 4.68 0 8.55 0.34 8.6 0.75 0.06 0.41 0.26 19.65 0.44 42.75 0.18 23.1 0.77 48.53 1.31 56.5 0.61 9.06 1.59 16 2.61 18.5 0.9 2.2 3.08 5.5 4.84 7.34 1.76 1.84 5.45 4.5 8.2 5.91 3.65 1.88 7.02 2.69 12.5 3.01 4.83 0.28 9.9-0.13 14.25-1.16 3.71-0.88 10.01-3.17 14-5.08 3.99-1.91 8.73-4.95 10.54-6.75 1.82-1.8 3.28-4.06 3.25-5.02-0.02-0.96-0.83-2.05-1.79-2.42-0.99-0.38-5.23 0.55-9.75 2.14-6.23 2.2-9.22 2.73-13.5 2.38-3.03-0.24-7.29-1.32-9.48-2.4-2.53-1.24-4.99-3.6-6.73-6.45-2.15-3.53-2.96-6.56-3.75-14-0.56-5.22-1.13-28.85-1.28-52.5l-0.26-43c30.22-0.85 39.79-1.42 40.75-1.8 1.15-0.46 1.77-1.82 1.79-3.95 0.03-1.79-0.53-3.82-1.25-4.51-0.71-0.69-3.32-1.27-5.79-1.3-2.47-0.02-4.69 0.2-4.92 0.51-0.23 0.3 1.01 0.55 2.75 0.55 1.75 0 4.3 0.45 5.67 1 1.38 0.55 2.52 1.79 2.54 2.75 0.03 0.96-0.53 2.29-1.25 2.95-0.88 0.82-7.41 1.28-20.79 1.48-11.71 0.17-19.79 0.69-20.23 1.3-0.41 0.56-0.74 16.32-0.74 35.02 0 18.7 0.44 41.65 0.99 51 0.54 9.35 1.63 19.03 2.43 21.5 0.84 2.62 2.92 5.86 4.99 7.75 1.96 1.79 5.47 3.77 7.81 4.41 2.34 0.64 6.5 1.13 9.25 1.09 2.75-0.04 8.15-1.2 12-2.57 4.47-1.59 7.54-2.18 8.5-1.63 1.24 0.71 0.99 1.38-1.5 3.94-1.65 1.71-7.05 5.1-12 7.55-6.69 3.31-10.92 4.69-16.5 5.41-4.17 0.53-10.17 0.6-13.5 0.16-4.09-0.54-7.43-1.77-10.5-3.84-2.47-1.67-5.26-3.88-6.19-4.9-0.93-1.03-2.59-3.9-3.69-6.37-1.47-3.29-2.29-8.41-3.05-19-0.58-7.97-1.03-33.4-1.02-56.5 0.03-36.69-0.16-42.16-1.51-43.25-0.84-0.69-2.33-1-3.29-0.7-0.96 0.3-4.79 0.19-8.51-0.25-3.72-0.44-6.77-1.25-6.78-1.8-0.02-0.55 0.95-1.9 2.15-3 1.2-1.1 4.48-3.05 7.28-4.34 2.81-1.28 6.91-3.95 9.11-5.93 2.2-1.98 5.26-5.43 6.81-7.66 1.54-2.24 4.91-8.12 7.49-13.07 2.57-4.95 4.74-9.34 4.81-9.75 0.07-0.41-0.2-0.75-0.58-0.75-0.39 0-1.72 2.14-2.95 4.75z"/>
		<path id="Path 34" class="s3" d="m788.66 1530.25c-1.85 2.89-5.34 8.58-7.76 12.65-2.42 4.08-7.1 9.95-10.4 13.05-4.17 3.92-7.6 6.16-11.25 7.35-3.84 1.24-5.4 2.3-5.83 3.95-0.31 1.24-0.2 2.61 0.25 3.04 0.46 0.43 4.58 0.88 9.17 1 4.58 0.12 8.76 0.66 9.28 1.21 0.57 0.6 0.83 15.89 0.66 38.5-0.17 22.56 0.22 45.27 0.98 57 1.05 16.18 1.62 20.18 3.34 23.5 1.15 2.2 3.06 5.07 4.24 6.37 1.19 1.3 3.96 3.51 6.16 4.9 2.43 1.53 6.36 2.82 10 3.27 3.3 0.41 9.15 0.41 13 0 5.39-0.56 9.19-1.82 16.5-5.45 5.23-2.59 10.52-5.69 11.78-6.9 1.25-1.2 2.26-2.75 2.25-3.44-0.02-0.69-1.04-1.25-2.28-1.24-1.24 0-5.62 0.96-9.75 2.12-5.21 1.46-9.18 1.96-13 1.62-3.02-0.27-7.3-1.4-9.5-2.51-2.2-1.12-4.76-2.86-5.69-3.88-0.93-1.02-2.47-3.66-3.42-5.86-1.53-3.56-1.78-9.64-2.26-55-0.38-36.64-0.22-51.42 0.58-52.5 0.91-1.22 4.67-1.55 20.45-1.79 13.39-0.2 19.74-0.66 20.63-1.5 0.72-0.67 1.28-2 1.25-2.96-0.02-0.96-1.16-2.2-2.54-2.75-1.37-0.55-5.31-1.27-8.75-1.61-3.44-0.33-11.65-0.67-18.25-0.75l-12-0.14c-1.02-24.03-1.8-32.24-2.41-33.75-0.6-1.51-1.31-2.75-1.58-2.75-0.27 0-2 2.36-3.85 5.25z"/>
		<path id="Path 35" class="s3" d="m1353.99 1533.08c-2.47 4.99-6.07 11.43-7.99 14.31-1.92 2.88-5.3 6.86-7.5 8.84-2.2 1.98-6.3 4.65-9.11 5.93-2.8 1.29-6.08 3.24-7.28 4.34-1.2 1.1-2.17 2.45-2.15 3 0.01 0.55 3.06 1.36 6.78 1.8 3.72 0.44 7.55 0.55 8.51 0.25 0.96-0.3 2.45 0.01 3.29 0.7 1.35 1.09 1.54 6.56 1.51 43.25-0.01 23.1 0.44 48.53 1.02 56.5 0.76 10.59 1.58 15.71 3.05 19 1.1 2.47 2.76 5.34 3.69 6.37 0.93 1.02 3.72 3.23 6.19 4.9 3.07 2.07 6.41 3.3 10.5 3.84 3.33 0.44 9.33 0.37 13.5-0.16 5.58-0.72 9.81-2.1 16.5-5.41 4.95-2.45 10.35-5.84 12-7.55 2.49-2.56 2.74-3.23 1.5-3.94-0.96-0.55-4.03 0.04-8.5 1.63-3.85 1.37-9.25 2.53-12 2.57-2.75 0.04-6.91-0.45-9.25-1.09-2.34-0.64-5.85-2.62-7.81-4.41-2.07-1.89-4.15-5.13-4.99-7.75-0.8-2.47-1.89-12.15-2.43-21.5-0.55-9.35-0.99-32.3-0.99-51 0-18.7 0.33-34.46 0.74-35.02 0.44-0.61 8.52-1.13 20.23-1.3 13.38-0.2 19.91-0.66 20.79-1.48 0.72-0.66 1.28-1.99 1.25-2.95-0.02-0.96-0.38-1.96-0.79-2.22-0.41-0.25-3.45-0.94-6.75-1.53-3.3-0.58-12.19-1.05-19.75-1.03-7.56 0.02-13.95-0.31-14.19-0.72-0.24-0.41-0.63-8.4-0.86-17.75-0.23-9.35-0.71-17.56-1.06-18.25-0.35-0.69-1.21-1.25-1.9-1.25-0.7 0-3.29 4.09-5.75 9.08z"/>
		<path id="Path 36" class="s4" d="m788.42 1527.75c-1.41 2.06-4.67 7.34-7.24 11.72-2.58 4.38-6.93 10.39-9.68 13.35-3.49 3.77-7.19 6.41-12.25 8.79-6.97 3.26-7.25 3.52-7.25 6.89 0 2.82 0.44 3.6 2.25 4 1.24 0.27 5.63 0.61 9.75 0.75l7.5 0.25c0.16 69.75 0.63 95.63 1.16 102.5 0.81 10.49 1.37 13.22 3.52 17 1.41 2.47 4.2 5.96 6.19 7.75 2 1.79 5.32 3.97 7.38 4.84 2.06 0.88 7.35 1.83 11.75 2.13 5.65 0.37 9.84 0.05 14.25-1.1 3.44-0.89 9.29-3.14 13-4.99 3.71-1.86 8.21-4.56 10-6 2.1-1.7 3.25-3.52 3.25-5.13 0-1.46-0.73-2.77-1.75-3.16-0.96-0.36-4.9 0.41-8.75 1.71-4.45 1.51-9.39 2.38-13.58 2.41-5.6 0.03-7.28-0.4-11.41-2.96-3.01-1.87-5.62-4.51-6.92-7-1.9-3.63-2.14-6.24-2.66-28.5-0.32-13.47-0.32-36.96 0-52.18l0.57-27.68c34.32-0.57 38.54-0.94 39.89-2.14 0.94-0.83 1.7-2.62 1.7-4 0-1.37-0.58-3-1.3-3.61-0.71-0.61-2.64-1.37-4.29-1.69-1.65-0.32-3.67-0.17-4.5 0.34-1.15 0.71-0.85 0.93 1.25 0.94 1.51 0.01 3.88 0.47 5.25 1.02 1.38 0.55 2.52 1.79 2.54 2.75 0.03 0.96-0.53 2.29-1.25 2.96-0.89 0.84-7.24 1.3-20.63 1.5-15.78 0.24-19.54 0.57-20.45 1.79-0.8 1.08-0.96 15.86-0.58 52.5 0.48 45.36 0.73 51.44 2.26 55 0.95 2.2 2.49 4.84 3.42 5.86 0.93 1.02 3.49 2.76 5.69 3.88 2.2 1.11 6.48 2.24 9.5 2.51 3.82 0.34 7.79-0.16 13-1.62 4.13-1.16 8.51-2.12 9.75-2.12 1.24-0.01 2.26 0.55 2.28 1.24 0.01 0.69-1 2.24-2.25 3.44-1.26 1.21-6.55 4.31-11.78 6.9-7.31 3.63-11.11 4.89-16.5 5.45-3.85 0.41-9.7 0.41-13 0-3.64-0.45-7.57-1.74-10-3.27-2.2-1.39-4.97-3.6-6.16-4.9-1.18-1.3-3.09-4.17-4.24-6.37-1.72-3.32-2.29-7.32-3.34-23.5-0.76-11.73-1.15-34.44-0.98-57 0.17-22.61-0.09-37.9-0.66-38.5-0.52-0.55-4.7-1.09-9.28-1.21-4.59-0.12-8.71-0.57-9.17-1-0.45-0.43-0.56-1.8-0.25-3.04 0.43-1.65 1.99-2.71 5.83-3.95 3.65-1.19 7.08-3.43 11.25-7.35 3.3-3.1 7.98-8.97 10.4-13.05 2.42-4.07 5.9-9.76 7.75-12.65 1.84-2.89 3.58-5.25 3.85-5.25 0.28 0 0.99 1.24 1.59 2.75 0.61 1.51 1.39 9.72 1.75 18.25l0.66 15.5c10.46 0.39 13.31 0.16 13.08-0.25-0.23-0.41-2.59-0.57-5.25-0.35-3.38 0.28-5.11-0.02-5.77-1-0.52-0.77-1.27-7.93-1.67-15.9-0.4-7.97-0.99-15.74-1.31-17.25-0.4-1.89-1.21-2.75-2.59-2.75-1.2 0-3.04 1.51-4.57 3.75z"/>
		<path id="Path 37" class="s2" d="m1358.62 1522.94c-0.34 0.58 0.17 1.05 1.13 1.04 0.97 0 2.28 1.22 2.94 2.75l1.18 2.77c-0.33-6.24-0.83-7.07-2.5-7.31-1.18-0.17-2.42 0.17-2.75 0.75z"/>
		<path id="Path 38" class="s0" d="m1357.57 1522.5c-0.86 0.83-1.34 1.84-1.06 2.25 0.28 0.41 1.07-0.08 1.75-1.09 0.71-1.06 2.1-1.69 3.24-1.49 1.28 0.23 2.23 1.44 2.63 3.34 0.58 2.73 0.65 2.77 0.77 0.49 0.07-1.37-0.44-3.07-1.13-3.77-0.7-0.69-2.03-1.26-2.95-1.25-0.92 0.01-2.38 0.69-3.25 1.52z"/>
		<path id="Path 39" class="s3" d="m504.4 1497c0.38 0.64-2.92 1-9.15 1-5.36 0.01-16.84 0.34-25.5 0.75-8.67 0.41-15.76 0.97-15.75 1.25 0 0.28 2.59 1.27 5.75 2.22 3.16 0.95 7.21 2.63 9 3.75 2.14 1.34 3.62 3.31 4.33 5.78 0.66 2.27 1.41 23.44 1.91 53.75 0.45 27.5 0.6 65.08 0.32 83.5-0.28 18.42-0.91 35.19-1.41 37.25-0.49 2.06-2.36 5.33-4.15 7.26-2.1 2.27-5.38 4.25-9.25 5.58-3.3 1.14-6.45 2.46-7 2.93-0.57 0.5 3.46 1.08 9.5 1.37 5.78 0.28 24.45 0.96 41.5 1.51 17.23 0.55 48.21 0.68 69.75 0.3l38.76-0.7c0.78-4.65 1.67-11.4 2.48-18 0.8-6.6 2.04-15.91 2.74-20.69 0.7-4.77 0.89-9.05 0.43-9.5-0.45-0.44-1.97 0.54-3.37 2.19-1.4 1.65-4.11 5.7-6.01 9-1.91 3.3-5.34 8.47-7.63 11.49-2.28 3.03-5.05 6.28-6.15 7.23-1.1 0.96-5.6 3.17-10 4.91-7.88 3.13-8.38 3.19-32.5 4.15-13.47 0.54-29 0.63-34.5 0.2-9.44-0.73-10.2-0.96-13.5-4.05l-3.5-3.28c-0.03-64.83 0.31-84.21 0.73-84.9 0.58-0.94 6.7-1.25 25.02-1.25 17.78 0 25.85 0.39 30.25 1.45 3.3 0.8 7.13 2.28 8.5 3.28 1.38 1 4.37 5.64 6.66 10.3 2.29 4.66 4.77 8.47 5.5 8.47 1.08 0 1.39-5.17 1.58-26.5 0.14-14.58-0.16-27.17-0.66-28-0.57-0.94-1.5-1.22-2.49-0.75-0.88 0.41-2.04 2.44-2.6 4.5-0.55 2.06-2.58 5.89-4.5 8.5-1.92 2.61-4.95 5.5-6.74 6.43-2.5 1.29-7.73 1.87-22.75 2.53-10.72 0.47-23.77 0.72-29 0.57l-9.5-0.28c0-77.46 0.16-81.33 1.75-83.8 1.33-2.05 2.89-2.88 6.5-3.44 2.61-0.41 15.55-0.69 28.75-0.62 13.2 0.07 26.92 0.64 30.5 1.26 3.58 0.62 8.94 2.36 11.92 3.86 3.09 1.56 7.3 4.89 9.76 7.74 2.39 2.75 5.91 8.15 7.83 12 1.93 3.85 4.42 8.13 5.54 9.5l2.05 2.5c-0.47-32.81-0.82-42.58-1.1-42.88-0.27-0.31-11.97-1.01-26-1.57-14.02-0.56-36.68-1.02-50.35-1.03-16.31-0.01-24.65 0.32-24.25 0.98z"/>
		<path id="Path 40" class="s4" d="m473 1497.1c-10.73 0.44-20.06 1.05-20.75 1.35-0.69 0.3-1.25 1-1.25 1.55 0 0.55 2.36 1.74 5.25 2.64 2.89 0.9 6.94 2.47 9 3.5 2.06 1.02 4.43 2.87 5.25 4.11 1.13 1.69 1.74 7.56 2.47 23.75 0.53 11.83 0.96 47.83 0.95 80-0.02 32.18-0.36 61.88-0.76 66-0.55 5.66-1.35 8.36-3.26 11-1.84 2.55-4.52 4.32-9.83 6.5-4.01 1.65-7.81 3.57-8.43 4.27-0.63 0.7-0.91 1.51-0.64 1.8 0.27 0.29 9.95 0.93 21.5 1.42 11.55 0.5 27.75 0.85 36 0.78 12.97-0.1 11.61-0.23-10-0.96-13.75-0.46-29.73-1.09-35.5-1.38-6.04-0.32-10.08-0.91-9.5-1.41 0.55-0.47 3.7-1.79 7-2.93 3.87-1.33 7.15-3.31 9.25-5.58 1.79-1.93 3.66-5.2 4.15-7.26 0.5-2.06 1.13-18.82 1.41-37.25 0.28-18.42 0.13-56-0.32-83.5-0.5-30.31-1.25-51.48-1.91-53.75-0.71-2.47-2.19-4.44-4.33-5.78-1.79-1.12-5.84-2.8-9-3.75-3.16-0.95-5.75-1.94-5.75-2.22-0.01-0.27 7.08-0.84 15.75-1.25 8.66-0.41 20.14-0.74 25.5-0.75 6.17 0 9.57-0.37 9.25-1-0.27-0.55-3.09-0.93-6.25-0.84-3.16 0.08-14.52 0.51-25.25 0.94z"/>
		<path id="Path 41" class="s4" d="m561.5 1495.98c1.65 0.45 12 1.08 23 1.41 11 0.33 20.23 0.86 20.5 1.19 0.27 0.32 0.63 10.11 0.8 21.75l0.3 21.17c-3.17-3.88-5.66-8.15-7.59-12-1.92-3.85-5.44-9.25-7.83-12-2.46-2.85-6.67-6.18-9.76-7.74-2.98-1.5-8.34-3.24-11.92-3.86-3.58-0.62-17.3-1.19-30.5-1.26-13.2-0.07-26.14 0.21-28.75 0.62-3.61 0.56-5.17 1.39-6.5 3.44-1.59 2.47-1.75 6.34-1.75 43.25v40.55c14.73 0.43 27.77 0.18 38.5-0.29 15.02-0.66 20.25-1.24 22.75-2.53 1.79-0.93 4.82-3.82 6.74-6.43 1.92-2.61 3.95-6.44 4.5-8.5 0.56-2.06 1.72-4.09 2.6-4.5 0.99-0.47 1.92-0.19 2.49 0.75 0.5 0.83 0.8 13.42 0.66 28-0.19 21.33-0.5 26.5-1.58 26.5-0.73 0-3.21-3.81-5.5-8.47-2.29-4.66-5.29-9.3-6.66-10.3-1.38-1-5.2-2.48-8.5-3.28-4.4-1.06-12.47-1.45-30.25-1.45-18.32 0-24.44 0.31-25.02 1.25-0.42 0.69-0.76 20.07-0.75 43.08l0.02 41.82c6.8 6.37 7.56 6.6 17 7.33 5.5 0.43 21.02 0.34 34.5-0.2 24.12-0.96 24.62-1.02 32.5-4.15 4.4-1.74 8.9-3.95 10-4.91 1.1-0.95 3.87-4.2 6.15-7.23 2.29-3.02 5.72-8.19 7.63-11.49 1.9-3.3 4.61-7.35 6.01-9 1.4-1.65 2.92-2.63 3.37-2.19 0.46 0.45 0.27 4.73-0.43 9.5-0.7 4.78-1.94 14.09-2.74 20.69-0.81 6.6-1.7 13.46-1.98 15.25l-0.51 3.25-59.5 0.53 60.5 0.47c0.71-3.49 2.32-14.63 4.03-27 2.79-20.13 2.96-22.66 1.6-24-1.36-1.34-1.87-1.12-4.68 2-1.73 1.92-5.47 7.33-8.3 12-2.83 4.67-7.4 10.75-10.15 13.5-3.33 3.32-7.02 5.78-11.01 7.33-3.29 1.28-9.59 2.75-13.99 3.27-4.4 0.51-19.02 0.93-32.5 0.92-13.48-0.01-26.03-0.35-27.91-0.77-1.91-0.42-4.5-2.07-5.9-3.75l-2.5-3c1.04-63.55 1.67-82.36 2.07-82.81 0.41-0.45 11.99-0.62 25.74-0.39 19.64 0.33 25.97 0.77 29.5 2.03 2.48 0.89 5.4 2.57 6.5 3.74 1.1 1.17 3.8 5.8 6 10.28 2.49 5.07 4.66 8.24 5.75 8.4 1.3 0.19 1.94-0.72 2.5-3.5 0.41-2.06 0.75-14.1 0.75-26.75 0-12.65-0.34-24.24-0.75-25.75-0.53-1.94-1.41-2.76-3-2.79-1.24-0.03-2.75 0.53-3.37 1.25-0.62 0.71-1.61 2.87-2.22 4.79-0.6 1.92-2.46 5.41-4.13 7.75-1.66 2.34-4.49 5.04-6.28 6-2.84 1.53-6.81 1.78-31.5 2l-28.25 0.25c0.46-63.26 0.96-78.42 1.63-80 0.59-1.38 1.92-2.89 2.97-3.38 1.04-0.48 11.35-1.08 22.9-1.34 11.55-0.26 25.95-0.04 32 0.49 8.6 0.74 12.39 1.58 17.39 3.84 3.52 1.59 7.81 4.47 9.54 6.39 1.73 1.92 5.54 7.78 8.47 13 2.94 5.22 6.07 10.28 6.97 11.23 0.9 0.95 1.97 1.52 2.38 1.25 0.41-0.26 0.99-5.09 1.28-10.73 0.3-5.64 0.18-15.51-0.25-21.94-0.43-6.43-1.23-12.11-1.78-12.62-0.55-0.52-11.35-1.18-24-1.48-12.65-0.31-21.65-0.18-20 0.27z"/>
		<path id="Path 42" class="s1" d="m544.5 1495.73c2.2 0.21 6.02 0.21 8.5 0 2.48-0.21 0.67-0.38-4-0.38-4.67 0-6.7 0.17-4.5 0.38z"/>
		<path id="Path 43" class="s1" d="m515 1495.74c4.13 0.19 10.65 0.19 14.5 0 3.85-0.19 0.48-0.34-7.5-0.34-7.98 0-11.13 0.15-7 0.34z"/>
		<path id="Path 44" class="s4" d="m878.5 1494.02c-1.65 0.52-4.26 1.97-5.8 3.21-1.69 1.37-3.17 3.86-3.73 6.27-0.51 2.2-0.93 6.03-0.94 8.5-0.02 2.47 0.76 6.05 1.72 7.95 1.11 2.18 3.4 4.3 6.25 5.77 2.48 1.28 6.08 2.32 8 2.31 1.92-0.01 5.52-1.03 7.99-2.27 2.47-1.24 5.52-3.84 6.78-5.76 1.63-2.49 2.28-4.94 2.26-8.5-0.02-2.75-0.82-6.56-1.78-8.47-0.96-1.92-3.55-4.75-5.75-6.3-2.21-1.56-5.79-3-8-3.23-2.2-0.23-5.35 0.01-7 0.52z"/>
		<path id="Path 45" class="s3" d="m875.75 1497.04c-2.56 1.34-4.07 3-4.77 5.21-0.56 1.79-1 5.95-0.99 9.25 0.01 4.22 0.61 6.97 2.01 9.25 1.46 2.37 3.28 3.63 6.75 4.66 3.4 1.01 5.89 1.15 8.75 0.5 2.2-0.5 5.46-2.03 7.25-3.41 1.88-1.45 3.72-4.08 4.37-6.25 0.64-2.12 0.82-5.48 0.43-7.75-0.39-2.2-1.5-5.12-2.47-6.5-0.97-1.37-3.3-3.5-5.17-4.72-2.26-1.47-4.93-2.21-7.91-2.21-2.5 0.01-6.17 0.89-8.25 1.97z"/>
		<path id="Path 46" class="s3" d="m1514.39 1343.5c0 7.15 0.16 9.85 0.35 6 0.19-3.85 0.19-9.7 0-13-0.2-3.3-0.35-0.15-0.35 7z"/>
		<path id="Path 47" class="s3" d="m1113.5 1289.74c2.75 0.2 6.8 0.2 9-0.01 2.2-0.21-0.05-0.38-5-0.38-4.95 0.01-6.75 0.18-4 0.39z"/>
		<path id="Path 48" fill-rule="evenodd" class="s4" d="m1839 1250.07c5.68-0.02 13.12 0.73 18.5 1.87 4.95 1.05 11.03 2.78 13.5 3.86 2.47 1.07 7.31 4.03 10.75 6.57 3.44 2.55 8 6.99 10.14 9.88 2.14 2.89 5.51 8.4 7.49 12.25 1.97 3.85 4.28 9.7 5.11 13 0.84 3.3 2.16 11.18 2.94 17.5 0.78 6.33 1.23 11.84 0.99 12.25-0.23 0.41-26.52 0.75-58.42 0.75-38 0-58 0.34-58 1 0 0.55 0.48 5.39 1.06 10.75 0.59 5.36 1.94 13.24 3 17.5 1.07 4.26 3.1 10.34 4.51 13.5 1.42 3.16 4.51 8.45 6.87 11.75 2.37 3.3 6.95 8.07 10.18 10.61 3.23 2.54 7.79 5.57 10.13 6.75 2.34 1.18 7.51 3.04 11.5 4.14 3.99 1.1 9.05 2.01 11.25 2.02 2.2 0 7.83-0.72 12.5-1.61 4.67-0.89 11.88-2.93 16-4.53 4.13-1.61 10.65-4.78 14.5-7.04 3.85-2.27 8.47-4.4 10.27-4.73 2.9-0.54 3.26-0.36 3.25 1.64-0.01 1.24-0.65 3.49-1.42 5-0.77 1.51-4.03 5.25-7.25 8.3-3.22 3.06-7.88 6.94-10.35 8.64-2.47 1.69-9 5.35-14.5 8.12-5.5 2.77-12.03 5.61-14.5 6.31-2.83 0.79-10.08 1.23-19.5 1.17-11.95-0.08-16.63-0.53-23-2.24-4.4-1.18-10.7-3.58-14-5.34-3.79-2.02-9.49-6.71-15.5-12.74-5.22-5.24-11.07-12.22-12.99-15.5-1.92-3.28-4.47-8.67-5.66-11.97-1.19-3.3-2.98-9.82-3.98-14.5-1.31-6.16-1.81-12.91-1.83-24.5-0.02-13.67 0.32-17.24 2.3-24.5 1.27-4.67 3.61-11.87 5.2-16 1.58-4.12 4.77-10.42 7.07-14 2.31-3.57 6.71-9.15 9.79-12.38 3.08-3.24 8.07-7.71 11.1-9.95 3.03-2.23 8.2-5.38 11.5-6.99 3.3-1.62 9.15-3.75 13-4.75 4.29-1.12 10.68-1.84 16.5-1.86zm-23.5 21.05c-2.75 1.98-6.43 5.8-8.19 8.49-1.75 2.69-4.14 7.14-5.31 9.89-1.17 2.75-3.01 7.7-4.08 11-1.07 3.3-1.94 7.24-1.93 8.75 0 1.51 0.35 2.78 0.76 2.81 0.41 0.04 3.22 0.3 6.25 0.58 3.03 0.28 19.04 0.81 35.59 1.19 16.55 0.37 31.4 0.43 33 0.15 2.33-0.42 2.89-1.02 2.8-3-0.05-1.37-0.62-6.42-1.25-11.23-0.72-5.53-2.1-10.68-3.76-14-1.44-2.89-4.25-7.23-6.25-9.66-2-2.43-5.43-5.64-7.63-7.13-2.2-1.5-6.47-3.46-9.5-4.35-3.03-0.9-7.3-1.6-9.5-1.57-2.2 0.04-6.7 1.06-10 2.27-3.3 1.22-8.25 3.83-11 5.81z"/>
		<path id="Path 49" class="s4" d="m1875.96 1259.25c-0.02 0.14 2.76 2.5 6.16 5.25 3.86 3.11 8.12 7.93 11.29 12.75 2.8 4.26 5.2 7.52 5.34 7.25 0.14-0.28-0.6-2.19-1.63-4.25-1.04-2.06-3.65-6-5.81-8.75-2.16-2.75-6.15-6.67-8.87-8.71-2.72-2.04-5.28-3.73-5.69-3.75-0.41-0.02-0.77 0.07-0.79 0.21z"/>
		<path id="Path 50" fill-rule="evenodd" class="s3" d="m1843.5 1251.7c2.2 0.2 7.38 0.87 11.5 1.48 4.13 0.61 10.42 2.25 14 3.63 3.58 1.39 9.37 4.81 12.89 7.61 4.27 3.4 8.1 7.73 11.58 13.08 2.85 4.4 5.87 9.8 6.72 12 0.84 2.2 2.26 7.15 3.15 11 0.89 3.85 2.08 10.49 2.64 14.75 0.56 4.26 1.02 8.42 1.02 9.25 0 1.32-7.11 1.5-58 1.5-39.09 0-58.08 0.34-58.25 1.03-0.14 0.57 0.08 5.18 0.49 10.25 0.41 5.07 1.93 13.94 3.38 19.72 1.45 5.78 4.12 13.42 5.93 17 1.81 3.58 5.46 9.16 8.12 12.42 2.66 3.25 8.21 8.23 12.33 11.05 5.39 3.7 9.75 5.76 15.5 7.33 4.71 1.29 10.88 2.18 15 2.17 3.85-0.01 11.05-0.89 16-1.97 6.64-1.44 12.67-3.79 23-8.97 7.7-3.86 14.15-6.91 14.33-6.77 0.19 0.13 0.05 1.59-0.3 3.24-0.41 1.95-3.2 5.45-7.96 10-4.62 4.43-10.95 9.05-17.19 12.58-5.44 3.06-12.8 6.66-16.38 8-6.02 2.24-7.79 2.41-24 2.32-16.02-0.1-18.18-0.33-25.5-2.73-4.4-1.44-10.25-4.15-13-6.01-2.75-1.86-7.25-5.4-10-7.86-2.75-2.46-7.52-7.81-10.61-11.89-3.08-4.07-6.53-9.21-7.66-11.41-1.12-2.2-3.3-8.72-4.83-14.5-2.57-9.71-2.78-11.96-2.84-30-0.06-18.77 0.05-19.84 2.8-28.5 1.57-4.95 3.49-10.8 4.27-13 0.78-2.2 3.21-6.92 5.4-10.5 2.2-3.58 5.93-8.75 8.29-11.5 2.37-2.75 7.65-7.75 11.74-11.11 4.13-3.39 10.33-7.32 13.94-8.83 3.58-1.49 8.08-3.17 10-3.72 1.92-0.56 6.88-1.35 11-1.76 4.13-0.41 9.3-0.58 11.5-0.38zm-28 19.42c-2.75 1.98-6.43 5.8-8.19 8.49-1.75 2.69-4.14 7.14-5.31 9.89-1.17 2.75-3.01 7.7-4.08 11-1.07 3.3-1.94 7.24-1.93 8.75 0 1.51 0.35 2.78 0.76 2.81 0.41 0.04 3.22 0.3 6.25 0.58 3.03 0.28 19.04 0.81 35.59 1.19 16.55 0.37 31.4 0.43 33 0.15 2.33-0.42 2.89-1.02 2.8-3-0.05-1.37-0.62-6.42-1.25-11.23-0.72-5.53-2.1-10.68-3.76-14-1.44-2.89-4.25-7.23-6.25-9.66-2-2.43-5.43-5.64-7.63-7.13-2.2-1.5-6.47-3.46-9.5-4.35-3.03-0.9-7.3-1.6-9.5-1.57-2.2 0.04-6.7 1.06-10 2.27-3.3 1.22-8.25 3.83-11 5.81z"/>
		<path id="Path 51" class="s1" d="m1830 1316.74c2.47 0.2 6.75 0.2 9.5 0 2.75-0.21 0.72-0.38-4.5-0.38-5.22 0-7.47 0.17-5 0.38zm6-2c4.67 0.19 12.55 0.19 17.5 0 4.95-0.18 1.13-0.33-8.5-0.33-9.63 0-13.67 0.15-9 0.33z"/>
		<path id="Path 52" class="s2" d="m1802.5 1313.93c-6.64 0.54-6.79 0.61-3 1.31 2.2 0.41 17.5 0.64 34 0.52l30-0.21c-42.64-0.83-51.05-1.28-47-1.6l7-0.56c-10.85-0.03-17.15 0.22-21 0.54z"/>
		<path id="Path 53" class="s4" d="m1826.21 1263.82c-4.01 1.47-9.64 4.5-12.5 6.72-3.04 2.36-6.69 6.53-8.75 10-1.95 3.28-4.53 8.43-5.72 11.46-1.2 3.03-2.87 8.54-3.71 12.25-1.23 5.43-1.29 7.05-0.28 8.29 0.74 0.92 2.67 1.5 4.75 1.43 1.92-0.07 3.05-0.28 2.5-0.46-0.55-0.18-2.24-0.6-3.75-0.92-2.19-0.47-2.75-1.15-2.76-3.34-0.01-1.51 0.94-5.67 2.11-9.25 1.17-3.57 3.12-8.75 4.32-11.5 1.21-2.75 3.57-7.03 5.25-9.5 1.67-2.47 5.47-6.18 8.44-8.23 2.96-2.05 8.09-4.64 11.39-5.76 3.3-1.12 7.58-2.04 9.5-2.03 1.92 0 5.97 0.73 9 1.63 3.03 0.89 7.3 2.85 9.5 4.35 2.2 1.49 5.63 4.7 7.63 7.13 2 2.43 4.81 6.77 6.25 9.66 1.66 3.32 3.04 8.47 3.76 14 0.63 4.81 1.2 9.86 1.25 11.23 0.09 1.99-0.48 2.59-2.89 3.05-2.81 0.54-2.85 0.63-0.75 1.27 1.24 0.39 3.15 0.25 4.25-0.3 1.57-0.79 2.01-2.02 2.03-5.75 0.01-2.61-0.32-4.38-0.75-3.92-0.43 0.45-1.27-2.7-1.86-7-0.59-4.31-2.28-10.42-3.75-13.58-1.47-3.16-4.81-8.05-7.42-10.86-2.61-2.81-6.55-6.15-8.75-7.43-2.2-1.27-6.7-3.01-10-3.87-3.3-0.85-7.13-1.53-8.5-1.5-1.38 0.03-5.78 1.26-9.79 2.73z"/>
		<path id="Path 54" fill-rule="evenodd" class="s4" d="m1370.5 1250.46c7.82 0.19 15.13 1.03 21 2.41 6.62 1.56 11.37 3.51 17.96 7.38 4.94 2.89 11.96 8.17 15.62 11.75 3.66 3.58 8.53 9.42 10.82 13 2.29 3.58 5.56 9.87 7.27 14 1.71 4.12 4 10.42 5.08 14 1.59 5.2 2.01 9.69 2.12 22.5 0.11 13.35-0.25 17.74-2.17 26.5-1.64 7.44-3.93 13.85-7.87 22-5.03 10.4-6.44 12.37-14.7 20.55-7.79 7.71-10.75 9.87-20.13 14.65-6.61 3.38-13.39 6.05-17 6.71-3.3 0.61-12.53 1.09-20.5 1.08-8.73-0.02-17.28-0.6-21.5-1.48-3.85-0.8-10.81-3.38-15.47-5.73-4.66-2.36-11.04-6.31-14.2-8.78-3.15-2.47-7.24-6.53-9.09-9-1.85-2.47-4.96-7.2-6.9-10.5-1.95-3.3-5.69-10.05-13.11-24l0.44-27c0.43-26.58 0.48-27.11 3.19-34 1.51-3.85 4.36-9.92 6.33-13.5 1.98-3.58 5.67-9.4 8.2-12.95 2.54-3.56 7.76-9.08 11.61-12.29 3.85-3.2 10.6-7.57 15-9.71 4.4-2.13 10.7-4.57 14-5.4 3.3-0.84 7.35-1.74 9-2 1.65-0.26 8.4-0.35 15-0.19zm-25.25 20.03c-2.89 1.93-7.12 5.87-9.4 8.76-2.28 2.89-5.41 7.95-6.95 11.25-1.54 3.3-3.8 10.72-5.03 16.5-1.83 8.63-2.22 13.61-2.18 28 0.03 12.66 0.52 19.71 1.76 25.5 0.95 4.4 2.94 11.83 4.43 16.5 1.49 4.67 4.47 11.65 6.62 15.5 2.15 3.85 5.84 8.91 8.2 11.25 2.37 2.34 6.1 5.15 8.3 6.25 2.2 1.1 6.81 2.73 10.25 3.62 4.37 1.13 8.21 1.44 12.75 1 4.11-0.4 8.79-1.73 12.75-3.62 3.44-1.65 8.55-5.14 11.35-7.75 3.56-3.32 6.25-7.16 8.91-12.75 2.09-4.4 4.5-10.7 5.34-14 0.85-3.3 2.07-10.95 2.72-17 0.68-6.26 0.95-16.82 0.64-24.5-0.3-7.42-1.3-17.1-2.22-21.5-0.92-4.4-3.23-11.83-5.12-16.5-1.9-4.67-4.89-10.71-6.66-13.41-1.76-2.71-5.46-6.91-8.21-9.35-2.75-2.43-7.92-5.8-11.5-7.49-4.64-2.19-8.36-3.17-13-3.42-4.6-0.24-8.25 0.24-12.5 1.66-3.3 1.1-8.36 3.57-11.25 5.5z"/>
		<path id="Path 55" class="s4" d="m1407.99 1260.25c-0.01 0.14 2.51 2.05 5.59 4.25 3.07 2.2 6.57 4.72 7.76 5.59 1.19 0.88 4.86 4.94 8.16 9.02 3.3 4.08 7.58 10.51 9.5 14.29 1.92 3.78 3.61 6.36 3.75 5.73 0.14-0.62-1.44-4.36-3.5-8.31-2.06-3.94-6.24-10.13-9.29-13.75-3.05-3.61-8.9-8.95-13-11.86-4.1-2.91-7.8-5.27-8.21-5.25-0.41 0.02-0.75 0.15-0.76 0.29z"/>
		<path id="Path 56" fill-rule="evenodd" class="s3" d="m1366.5 1252.09c6.94-0.05 15.37 0.55 20 1.43 4.4 0.84 10.92 2.66 14.5 4.05 3.58 1.39 9.2 4.5 12.5 6.91 3.3 2.41 6.9 5.02 8 5.8 1.1 0.78 4.54 4.52 7.64 8.32 3.1 3.79 7.48 10.39 9.75 14.65 2.26 4.26 5.29 11.69 6.73 16.5 2.06 6.9 2.72 11.6 3.11 22.25 0.39 10.81 0.08 15.89-1.58 25.5-1.15 6.6-2.8 14.03-3.68 16.5-0.88 2.47-4 8.78-6.93 14-3.94 7.01-7.27 11.34-12.71 16.5-4.77 4.53-10.71 8.82-16.85 12.17-5.21 2.85-11.73 5.84-14.48 6.65-2.75 0.8-10.17 1.78-16.5 2.17-6.75 0.42-15.42 0.27-21-0.36-5.22-0.59-12.2-2.01-15.5-3.15-3.3-1.15-9.78-4.42-14.4-7.28-4.61-2.86-10.69-7.69-13.5-10.73-2.8-3.04-8.09-10.91-11.74-17.5-3.65-6.58-7.36-13.43-8.25-15.22-1.36-2.74-1.61-7.35-1.61-29.25 0-24.79 0.11-26.34 2.41-33.25 1.32-3.99 4.96-11.75 8.08-17.25 3.12-5.5 7.77-12.43 10.34-15.39 2.57-2.97 8.05-7.75 12.17-10.63 4.13-2.88 10.65-6.5 14.5-8.04 3.85-1.55 9.25-3.36 12-4.04 2.75-0.68 10.4-1.27 17-1.31zm-21.25 18.4c-2.89 1.93-7.12 5.87-9.4 8.76-2.28 2.89-5.41 7.95-6.95 11.25-1.54 3.3-3.8 10.72-5.03 16.5-1.83 8.63-2.22 13.61-2.18 28 0.03 12.66 0.52 19.71 1.76 25.5 0.95 4.4 2.94 11.83 4.43 16.5 1.49 4.68 4.47 11.65 6.62 15.5 2.15 3.85 5.84 8.91 8.2 11.25 2.37 2.34 6.1 5.15 8.3 6.25 2.2 1.1 6.81 2.73 10.25 3.62 4.37 1.13 8.21 1.44 12.75 1 4.11-0.4 8.79-1.73 12.75-3.62 3.44-1.65 8.55-5.14 11.35-7.75 3.56-3.32 6.25-7.16 8.91-12.75 2.09-4.4 4.5-10.7 5.34-14 0.85-3.3 2.07-10.95 2.72-17 0.68-6.26 0.95-16.82 0.64-24.5-0.3-7.42-1.3-17.1-2.22-21.5-0.92-4.4-3.23-11.82-5.12-16.5-1.9-4.67-4.89-10.71-6.66-13.41-1.76-2.71-5.46-6.91-8.21-9.35-2.75-2.43-7.92-5.8-11.5-7.49-4.64-2.19-8.36-3.17-13-3.42-4.6-0.24-8.25 0.24-12.5 1.66-3.3 1.1-8.36 3.57-11.25 5.5z"/>
		<path id="Path 57" fill-rule="evenodd" class="s4" d="m1367.25 1261.05c1.51-0.03 6.01 0.98 10 2.23 3.99 1.25 9.5 3.9 12.25 5.89 2.75 1.98 7.01 5.79 9.46 8.47 2.66 2.89 6.25 8.71 8.87 14.36 2.42 5.22 5.27 12.88 6.32 17 1.06 4.13 2.28 13.13 2.7 20 0.43 6.88 0.44 18.35 0.03 25.5-0.41 7.15-1.47 16.15-2.36 20-0.9 3.85-3.79 11.5-6.43 17-4.35 9.06-5.4 10.46-11.2 14.86-3.51 2.67-7.74 5.54-9.39 6.38-1.65 0.83-5.92 2.12-9.5 2.86-4.9 1.01-8.1 1.09-13 0.33-3.58-0.56-9.2-2.27-12.5-3.8-3.3-1.52-7.76-4.32-9.92-6.2-2.16-1.89-5.32-5.68-7.03-8.43-1.72-2.75-4.54-8.37-6.27-12.5-1.74-4.12-4.11-10.65-5.26-14.5-1.15-3.85-2.59-11.5-3.19-17-0.61-5.63-0.85-16.78-0.53-25.5 0.31-8.53 1.27-18.87 2.14-23 0.87-4.12 3.45-11.32 5.74-16 2.29-4.67 6.05-10.53 8.37-13 2.31-2.47 6.15-5.85 8.52-7.5 2.38-1.65 7.72-3.99 11.88-5.2 4.15-1.2 8.79-2.22 10.3-2.25zm-22 9.44c-2.89 1.93-7.12 5.87-9.4 8.76-2.28 2.89-5.41 7.95-6.95 11.25-1.54 3.3-3.8 10.72-5.03 16.5-1.83 8.63-2.22 13.61-2.18 28 0.03 12.66 0.52 19.71 1.76 25.5 0.95 4.4 2.94 11.83 4.43 16.5 1.49 4.68 4.47 11.65 6.62 15.5 2.15 3.85 5.84 8.91 8.2 11.25 2.37 2.34 6.1 5.15 8.3 6.25 2.2 1.1 6.81 2.73 10.25 3.62 4.37 1.13 8.21 1.44 12.75 1 4.11-0.4 8.79-1.73 12.75-3.62 3.44-1.65 8.55-5.14 11.35-7.75 3.56-3.32 6.25-7.16 8.91-12.75 2.09-4.4 4.5-10.7 5.34-14 0.85-3.3 2.07-10.95 2.72-17 0.68-6.26 0.95-16.82 0.64-24.5-0.3-7.42-1.3-17.1-2.22-21.5-0.92-4.4-3.23-11.82-5.12-16.5-1.9-4.67-4.89-10.71-6.66-13.41-1.76-2.71-5.46-6.91-8.21-9.35-2.75-2.43-7.92-5.8-11.5-7.49-4.64-2.19-8.36-3.17-13-3.42-4.6-0.24-8.25 0.24-12.5 1.66-3.3 1.1-8.36 3.57-11.25 5.5z"/>
		<path id="Path 58" fill-rule="evenodd" class="s4" d="m614 1250.13c4.67-0.06 13.23 0.58 19 1.42 7.58 1.11 12.3 2.43 16.99 4.74 3.61 1.78 8.68 5.44 11.39 8.21 2.69 2.75 6.18 7.59 7.76 10.75 2.07 4.15 3.14 8.32 3.88 15 0.56 5.09 1.61 31.52 2.34 58.75 1.2 45.09 1.49 49.85 3.23 53.44 1.05 2.16 3.18 4.86 4.74 6 2.07 1.51 4.6 2.12 9.5 2.29 3.67 0.13 7.12 0.67 7.67 1.22 0.55 0.54 0.73 1.56 0.4 2.26-0.32 0.71-3.25 3.07-6.5 5.24-3.24 2.18-8.04 4.77-10.65 5.75-3.18 1.2-7.48 1.8-13 1.8-6.49-0.01-8.94-0.43-11.5-2-1.79-1.1-4.81-4.14-6.72-6.75-1.91-2.61-3.82-6.51-4.25-8.66-0.43-2.16-1.23-4.08-1.78-4.29-0.55-0.2-4.37 1.8-8.5 4.46-4.12 2.65-10.42 6.43-14 8.39-3.58 1.96-9.87 4.8-14 6.31-5.11 1.87-10.21 2.91-16 3.25-5.97 0.35-10.59 0-15.5-1.17-3.85-0.91-10.11-3.32-13.91-5.35-3.81-2.03-8.48-5.49-10.38-7.69-1.9-2.2-4.82-6.93-6.48-10.5-2.95-6.33-3.01-6.82-2.59-18.5 0.33-9.19 0.9-13.05 2.44-16.5 1.11-2.48 4.02-6.71 6.47-9.41 2.45-2.71 7.83-7.12 11.95-9.8 5.44-3.55 11.21-6.09 21-9.26 7.42-2.41 21.38-6.19 31-8.4 9.63-2.22 19.3-4.29 21.5-4.62 2.2-0.32 4.76-1.13 5.69-1.8 1.52-1.09 1.59-2.4 0.7-13.21-0.54-6.6-1.41-14.93-1.94-18.5-0.73-4.97-1.86-7.79-4.79-12-2.11-3.03-6.05-7.15-8.75-9.16-2.7-2.02-7.16-4.22-9.91-4.9-3.12-0.77-8.76-1.06-15-0.75-7.35 0.35-11.06 1.02-14 2.52-2.2 1.12-5.86 4.46-8.14 7.41-2.28 2.96-5.7 8.53-7.6 12.38-1.9 3.85-4.77 8.03-6.36 9.28-2.12 1.67-4.18 2.28-7.65 2.25-3.89-0.02-4.96-0.44-5.92-2.28-0.64-1.24-1.36-5.63-1.59-9.75-0.31-5.32 0.03-8.73 1.16-11.75 0.96-2.55 3.3-5.66 5.85-7.79 2.34-1.94 7.63-5.27 11.75-7.39 4.13-2.12 10.88-5.05 15-6.52 4.13-1.46 9.75-3.03 12.5-3.49 2.75-0.45 8.83-0.87 13.5-0.93zm-1.5 94.87c-3.85 1.27-10.15 3.74-14 5.5-3.85 1.76-9.36 5.06-12.25 7.35-4.19 3.31-5.67 5.31-7.35 9.9-1.65 4.53-2 7.34-1.66 13.25 0.27 4.82 1.15 8.93 2.45 11.5 1.12 2.2 4.01 5.68 6.42 7.74 2.43 2.07 6.29 4.19 8.64 4.75 2.34 0.55 7.51 1.01 11.5 1.02 3.99 0 9.95-0.7 13.25-1.55 3.3-0.86 8.48-2.93 11.5-4.62 3.02-1.68 7.19-4.69 9.27-6.7l3.76-3.64c-0.02-36.81-0.26-48.18-0.53-49-0.32-0.95-1.7-1.47-3.75-1.43-1.79 0.04-7.08 0.87-11.75 1.85-4.67 0.98-11.65 2.82-15.5 4.08z"/>
		<path id="Path 59" fill-rule="evenodd" class="s3" d="m613.5 1252.1c6.6-0.03 16.05 0.55 21 1.29 5.97 0.9 11.1 2.41 15.25 4.49 3.44 1.71 8.29 5.26 10.77 7.87 2.49 2.61 5.85 7.22 7.47 10.25 2.78 5.2 2.99 6.48 3.97 23.5 0.56 9.9 1.49 35.55 2.05 57 0.56 21.45 1.43 41.03 1.93 43.5 0.67 3.35 1.95 5.46 4.98 8.25 3.84 3.53 4.46 3.75 10.58 3.75 3.58 0 6.71 0.34 6.97 0.75 0.26 0.41-0.76 1.97-2.25 3.46-1.5 1.49-5.64 4.15-9.22 5.91-5.79 2.86-7.48 3.22-15.54 3.29-7.02 0.07-9.65-0.3-11.75-1.66-1.49-0.96-4.15-3.89-5.9-6.5-1.75-2.61-3.7-6.78-4.32-9.25-0.61-2.47-1.77-4.63-2.56-4.8-0.78-0.16-3.23 0.92-5.43 2.39-2.2 1.48-6.81 4.43-10.25 6.55-3.44 2.12-6.48 3.86-6.75 3.86-0.27 0-1.74 0.86-3.25 1.92-1.51 1.05-7.02 3.36-12.25 5.13-7.63 2.59-11.07 3.21-17.5 3.19-4.4-0.01-10.25-0.55-13-1.2-2.75-0.64-7.7-2.44-11-4-3.3-1.55-8.18-5.01-10.85-7.68-2.66-2.67-6.04-7.33-7.5-10.36-2.37-4.93-2.65-6.64-2.65-16.5 0-8.35 0.47-12.33 1.95-16.5 1.41-3.99 3.61-7.17 8-11.58 3.33-3.35 8.07-7.27 10.55-8.72 2.48-1.45 8.33-4.23 13-6.18 4.67-1.95 15.02-5.13 23-7.08 7.98-1.94 17.88-4.37 22-5.4 4.13-1.02 9.3-2.15 11.5-2.51 2.2-0.36 5.8-1.12 12-2.73l-0.79-12.15c-0.43-6.68-1.26-15.3-1.85-19.15-0.59-3.85-1.7-8.46-2.46-10.25-0.77-1.79-4.32-6.17-7.9-9.75-3.58-3.57-8.19-7.19-10.25-8.02-2.72-1.11-7.33-1.52-16.75-1.49-11.41 0.03-13.55 0.31-17.47 2.27-2.67 1.34-6.19 4.45-8.76 7.74-2.36 3.03-6.09 8.99-8.28 13.25-3.21 6.24-4.67 8.04-7.49 9.25-1.92 0.83-4.63 1.5-6 1.5-1.57 0-2.95-0.84-3.71-2.25-0.66-1.24-1.22-5.92-1.25-10.41-0.04-7.5 0.2-8.51 2.96-12.38 1.86-2.61 5.86-5.95 10.5-8.76 4.12-2.5 10.87-5.88 15-7.51 4.12-1.63 9.75-3.54 12.5-4.24 2.75-0.71 10.4-1.31 17-1.35zm-1 92.9c-3.85 1.27-10.15 3.74-14 5.5-3.85 1.76-9.36 5.06-12.25 7.35-4.19 3.31-5.67 5.31-7.35 9.9-1.65 4.53-2 7.34-1.66 13.25 0.27 4.82 1.15 8.93 2.45 11.5 1.12 2.2 4.01 5.68 6.42 7.74 2.43 2.07 6.29 4.19 8.64 4.75 2.34 0.55 7.51 1.01 11.5 1.02 3.99 0 9.95-0.7 13.25-1.55 3.3-0.86 8.48-2.93 11.5-4.62 3.02-1.68 7.19-4.69 9.27-6.7l3.76-3.64c-0.02-36.81-0.26-48.17-0.53-49-0.32-0.95-1.7-1.47-3.75-1.43-1.79 0.04-7.08 0.87-11.75 1.85-4.67 0.98-11.65 2.82-15.5 4.08z"/>
		<path id="Path 60" fill-rule="evenodd" class="s4" d="m641.54 1335c1.46 0 2.87 0.81 3.46 2 0.59 1.17 1 12.17 1 26.5 0 18.75-0.32 25.15-1.37 27.25-0.76 1.51-4.47 4.88-8.25 7.49-3.78 2.61-9.8 5.72-13.38 6.91-5 1.67-8.93 2.17-17 2.18-8.46 0.01-11.38-0.38-15-2.02-2.47-1.13-5.62-3.17-7-4.55-1.37-1.37-3.85-4.92-5.5-7.88-2.63-4.73-3-6.35-3-13.38 0-6.58 0.47-8.97 2.63-13.5 1.45-3.03 4.15-6.85 6-8.5 1.86-1.66 6.97-4.87 11.37-7.15 4.4-2.28 11.6-5.25 16-6.61 4.4-1.35 11.93-3.3 16.74-4.33 4.81-1.02 9.22-2.44 9.79-3.14 0.58-0.7 2.16-1.27 3.51-1.27zm-29.04 10c-3.85 1.27-10.15 3.74-14 5.5-3.85 1.76-9.36 5.06-12.25 7.35-4.19 3.31-5.67 5.31-7.35 9.9-1.65 4.53-2 7.34-1.66 13.25 0.27 4.82 1.15 8.93 2.45 11.5 1.12 2.2 4.01 5.68 6.42 7.74 2.43 2.07 6.29 4.19 8.64 4.75 2.34 0.55 7.51 1.01 11.5 1.02 3.99 0 9.95-0.7 13.25-1.55 3.3-0.86 8.48-2.93 11.5-4.62 3.03-1.68 7.19-4.69 9.27-6.7l3.76-3.64c-0.02-36.81-0.25-48.17-0.53-49-0.32-0.95-1.7-1.47-3.75-1.43-1.79 0.04-7.08 0.87-11.75 1.85-4.67 0.98-11.65 2.82-15.5 4.08z"/>
		<path id="Path 61" class="s4" d="m275.5 1253.02c-5.5 1.54-15.17 4.75-21.49 7.14-6.75 2.55-11.62 4.96-11.81 5.84-0.22 1.01 1.71 2.39 5.98 4.25 3.48 1.52 7.53 3.99 9.01 5.5 1.47 1.51 3.24 4.1 3.93 5.75 0.92 2.22 1.35 17.03 1.67 57 0.25 31.71 0.03 56.68-0.53 60.5-0.6 4.05-1.87 7.76-3.36 9.85-1.32 1.84-3.75 4.09-5.4 4.99-1.65 0.91-5.02 2.33-7.49 3.16-2.78 0.93-4.59 2.17-4.75 3.25-0.15 0.97 0.74 2.29 1.99 2.96 1.61 0.87 10.62 1.22 31.75 1.25 16.23 0.02 31.19-0.3 33.25-0.71 3.12-0.62 3.71-1.13 3.5-3-0.19-1.71-2.14-3.21-8.15-6.25-5.42-2.75-8.21-4.78-8.88-6.5-0.54-1.37-1.38-16.22-1.87-33-0.48-16.78-0.77-42.87-0.62-57.98l0.27-27.48c11.63-8.1 18.77-12.38 23.38-14.74 8.34-4.28 8.43-4.3 19-4.27 8.81 0.02 11.39 0.4 15.12 2.2 2.48 1.2 6.64 4.44 9.25 7.22 2.61 2.78 5.95 7.64 7.41 10.8 2.63 5.67 2.68 6.18 3.59 37.25 0.51 17.33 0.66 40.72 0.34 52-0.33 11.28-1.04 22.3-1.58 24.5-0.54 2.2-2.23 5.24-3.75 6.76-1.52 1.51-3.88 2.96-5.26 3.22-1.37 0.27-3.74 1.39-5.25 2.5-1.51 1.11-2.75 2.92-2.75 4.02 0 1.1 0.79 2.26 1.75 2.58 0.96 0.32 11.2 0.81 22.75 1.1 11.55 0.28 25.81 0.14 31.68-0.33 5.89-0.47 11.28-1.4 12-2.08 1.08-1 0.96-1.59-0.68-3.28-1.1-1.14-4.02-2.72-6.5-3.53-2.48-0.81-5.85-2.55-7.5-3.88-2.68-2.15-3.07-3.19-3.69-9.74-0.38-4.04-0.73-30.96-0.79-59.84l-0.11-52.5c6.66-5.54 11.52-9.12 15.09-11.53 3.57-2.42 8.75-4.97 11.5-5.68 2.75-0.72 9.73-1.29 15.5-1.28 8.86 0.01 11.28 0.37 15.5 2.33 2.82 1.31 6.91 4.46 9.39 7.24 2.41 2.71 5.53 7.39 6.93 10.42 2.53 5.47 2.55 5.7 3.43 45 0.49 21.72 0.72 45.58 0.5 53-0.31 10.73-0.79 14.31-2.32 17.45-1.06 2.17-3.73 5.22-5.93 6.78-2.2 1.55-4.68 2.8-5.5 2.77-0.82-0.03-2.62 1.12-4 2.55-2.47 2.58-2.48 2.63-0.5 4 1.28 0.88 6.49 1.62 14.5 2.06 6.88 0.37 20.82 0.41 31 0.09 10.17-0.32 19.29-0.83 20.25-1.14 0.96-0.31 1.75-1.46 1.75-2.56 0-1.1-1.01-2.65-2.25-3.43-1.24-0.79-4.84-2.37-8-3.5-4.31-1.55-5.86-2.63-6.2-4.32-0.24-1.24-0.69-4.28-1-6.75-0.31-2.47-1.23-28.35-2.05-57.5-0.82-29.15-1.94-55.36-2.49-58.25-0.56-2.89-2.32-7.84-3.93-11-1.61-3.16-4.11-7.33-5.57-9.25-1.45-1.92-4.97-5.25-7.83-7.39-2.85-2.15-7.66-5.07-10.68-6.5-5.15-2.44-6.42-2.61-20-2.58-10.66 0.02-16.22 0.49-21 1.79-3.74 1.01-10.03 3.97-14.82 6.97-4.58 2.87-11.89 8.47-16.25 12.46-4.36 3.99-8.27 7.25-8.68 7.24-0.41 0-2.4-2.59-4.42-5.75-2.03-3.16-6.19-8.1-9.25-10.99-3.07-2.89-7.94-6.36-10.83-7.72-2.89-1.37-7.95-2.99-11.25-3.62-3.51-0.67-10.15-0.91-16-0.59-5.71 0.32-12.79 1.44-16.5 2.6-3.57 1.12-9.65 4.15-13.5 6.73-3.85 2.59-10.05 7.21-13.78 10.27-3.73 3.07-7 5.36-7.26 5.08-0.27-0.28-1.17-5.22-2-11-0.83-5.78-1.72-11.29-1.98-12.25-0.29-1.06-1.37-1.71-2.73-1.64-1.24 0.06-6.75 1.37-12.25 2.91z"/>
		<path id="Path 62" class="s4" d="m293.57 1286.57l-2.93 1.49c0.29 80.17 0.82 107.27 1.37 111.94 0.55 4.68 1.51 8.95 2.13 9.5 0.83 0.73 0.93 0.32 0.4-1.5-0.4-1.37-1.1-13.97-1.55-28-0.46-14.03-0.87-40.01-0.91-57.75l-0.08-32.25c5.04-3.86 6.05-4.96 5.5-4.95-0.55 0.02-2.32 0.7-3.93 1.52zm198.02-22.33c2.8 2.89 6.07 6.61 7.28 8.26 1.21 1.65 2.19 2.55 2.19 2-0.01-0.55-1.49-3.08-3.29-5.62-1.8-2.54-4.73-5.8-6.52-7.25-1.79-1.45-3.59-2.64-4-2.64-0.41-0.01 1.54 2.35 4.34 5.25z"/>
		<path id="Path 63" class="s3" d="m276.5 1254.56c-4.4 1.34-10.7 3.18-14 4.08-3.3 0.9-8.93 2.94-12.5 4.53-6.05 2.69-6.36 2.98-4.5 4.23 1.1 0.73 3.13 1.68 4.5 2.1 1.38 0.42 4.16 1.94 6.18 3.38 2.02 1.44 4.42 4.2 5.33 6.12 1.07 2.26 1.97 8.12 2.54 16.5 0.48 7.15 0.89 31 0.91 53 0.01 22-0.42 43.71-0.97 48.25-0.7 5.8-1.73 9.44-3.49 12.25-1.37 2.2-3.96 4.91-5.75 6.02-1.79 1.12-5.16 2.47-7.5 3-2.34 0.54-4.26 1.54-4.27 2.23 0 0.72 2 1.57 4.75 2.01 2.63 0.41 16.47 0.7 30.77 0.63 14.3-0.07 27.32-0.41 28.94-0.76 1.62-0.35 2.97-1.08 3-1.63 0.03-0.55-3.2-2.57-7.19-4.5-3.98-1.92-7.92-4.51-8.75-5.75-0.82-1.24-1.95-5.96-2.49-10.5-0.55-4.54-1-31.54-1-60l-0.01-51.75c5.81-3.18 9.75-5.69 12.5-7.62 2.75-1.93 7.93-5.01 11.5-6.84 3.57-1.84 9.43-3.86 13-4.5 4.86-0.87 8.26-0.89 13.5-0.05 4.11 0.66 9.06 2.3 12 3.96 3.04 1.73 6.74 5.13 9.43 8.7 2.44 3.22 5.03 7.31 5.75 9.1 0.73 1.79 1.8 7.41 2.39 12.5 0.67 5.74 0.95 26.72 0.75 55.25-0.3 43.64-0.42 46.2-2.32 50-1.61 3.22-3.35 4.68-8.93 7.5-3.81 1.93-7.09 3.95-7.27 4.5-0.19 0.55 1.36 1.33 3.43 1.74 2.07 0.41 14.57 0.74 27.77 0.74 13.2 0 26.37-0.33 29.26-0.74 2.9-0.41 5.26-1.08 5.25-1.49 0-0.41-3.27-2.26-7.26-4.1-3.99-1.85-8.15-4.37-9.25-5.61-1.81-2.05-2.06-4.24-2.69-23.4-0.37-11.63-0.71-38.58-0.75-59.89l-0.06-38.75c11.24-9.1 17.2-13.16 20.5-14.9 3.66-1.93 8.73-3.57 13-4.21 3.85-0.57 10.6-0.77 15-0.43 4.54 0.35 9.73 1.43 12 2.5 2.2 1.04 6.48 4.51 9.51 7.71 4.45 4.7 5.94 7.19 7.7 12.83 1.19 3.85 2.43 10.15 2.75 14 0.31 3.85 0.64 26.8 0.73 51l0.16 44c-3.76 7.64-6.42 11.13-8.35 12.69-1.93 1.55-4.18 2.8-5 2.77-0.82-0.02-2.63 0.84-4 1.91-1.38 1.08-2.13 2.33-1.67 2.79 0.46 0.46 12.83 0.99 27.5 1.17 14.67 0.18 29.03 0.07 31.92-0.25 4.19-0.46 5.2-0.92 5-2.28-0.16-1.09-2.66-2.62-6.95-4.25-3.68-1.4-7.17-3-7.74-3.55-0.58-0.55-1.49-5.95-2.03-12-0.55-6.05-1.47-30.57-2.05-54.5-0.59-23.92-1.46-47.55-1.95-52.5-0.49-5.07-1.9-11.59-3.21-14.93-1.55-3.97-4.34-8.1-8.45-12.5-4.18-4.48-8.3-7.68-12.98-10.07-6.68-3.41-7.19-3.51-20.37-3.84-9.84-0.24-15.36 0.1-20.27 1.25-3.71 0.88-9.11 2.78-12 4.24-2.89 1.46-7.66 4.49-10.61 6.75-2.94 2.25-8.34 6.9-12 10.32-3.65 3.43-7.2 6.24-7.89 6.25-0.69 0.02-3.22-3.01-5.63-6.72-2.42-3.71-6.35-8.6-8.75-10.87-2.41-2.26-6.62-5.27-9.37-6.69-2.75-1.42-6.8-3.06-9-3.63-2.2-0.58-8.73-1.04-14.5-1.04-5.78 0.01-13.31 0.68-16.75 1.49-3.44 0.82-8.61 2.68-11.5 4.13-2.89 1.46-9.47 6.07-14.63 10.25-5.17 4.19-9.55 7.95-9.75 8.36-0.21 0.41-1.27 0.75-2.37 0.75-1.1 0-2.39-0.79-2.87-1.75-0.48-0.96-1.21-6.03-1.61-11.25-0.41-5.22-0.92-10.06-1.13-10.75-0.21-0.69-1.4-1.23-2.64-1.2-1.24 0.03-5.85 1.16-10.25 2.51z"/>
		<path id="Path 64" class="s4" d="m1561.5 1250.46c-3.85 0.73-9.47 2.25-12.5 3.38-3.03 1.14-8.88 4.31-13 7.06-4.13 2.74-10.09 7.04-13.25 9.54-3.16 2.51-6.09 4.57-6.5 4.58-0.41 0-1.09-2.13-1.51-4.75-0.41-2.63-0.75-7.36-0.75-10.52 0.01-3.16-0.21-6.42-0.49-7.25-0.28-0.85-1.69-1.5-3.25-1.5-1.51 0-7.03 1.13-12.25 2.51-5.22 1.37-14 4.06-19.5 5.97-5.5 1.91-10.9 4.43-12 5.59l-2 2.12c3.88 3.05 6.58 4.39 8.5 4.93 1.92 0.55 4.77 1.98 6.33 3.19 1.92 1.48 3.13 3.64 3.77 6.69 0.52 2.47 1.2 25.65 1.52 51.5 0.31 25.85 0.16 52.85-0.33 60-0.63 9.23-1.39 13.8-2.59 15.75-0.94 1.51-3.16 3.4-4.95 4.19-1.79 0.79-4.38 1.67-5.75 1.95-1.38 0.28-3.51 1.43-4.75 2.56-1.24 1.13-2.13 2.84-1.98 3.8 0.25 1.63 2.52 1.74 32.75 1.61 17.86-0.07 33.83-0.55 35.48-1.07 1.65-0.51 3-1.55 3-2.3 0-0.75-2.7-2.44-6-3.75-3.3-1.31-7.25-3.59-8.78-5.06-1.52-1.47-3.21-4.48-3.75-6.68-0.54-2.2-1.25-12.55-1.59-23-0.34-10.45-0.78-34.64-1-53.75l-0.38-34.75c10.67-9.69 16.4-14.08 19.61-16 3.22-1.92 8.11-4.27 10.87-5.22 2.76-0.94 7.94-1.73 11.52-1.74 3.58-0.01 9.2 0.73 12.5 1.65 5.13 1.43 7.03 2.69 13.13 8.74 5.26 5.21 7.5 8.25 8.5 11.57 1.09 3.57 1.37 15.86 1.37 59.5v55c-3.8 5.49-5.98 6.96-9.25 7.97-2.61 0.81-5.87 2.65-7.25 4.08-2.47 2.58-2.48 2.63-0.5 4 1.29 0.89 6.47 1.62 14.5 2.04 6.88 0.37 19.92 0.37 29 0 9.08-0.37 18.41-0.87 20.75-1.13 2.91-0.31 4.25-0.93 4.25-1.96 0-0.83-3.22-3.25-7.25-5.44-3.99-2.17-8.37-5.13-9.75-6.58l-2.5-2.64c-1.45-112.75-1.38-116.45 0.25-118.17 0.96-1.01 5.58-4.43 10.25-7.61 4.67-3.18 9.85-6.48 11.5-7.33 1.65-0.84 6.49-2.25 10.75-3.13 6.29-1.3 8.65-1.38 12.5-0.45 2.61 0.64 7 2.12 9.75 3.3 2.75 1.19 7.17 4.15 9.83 6.6 2.69 2.48 5.9 6.77 7.25 9.7 1.81 3.93 2.67 8.19 3.4 17 0.55 6.46 0.98 29.75 0.98 51.75 0 22.18-0.44 41.78-0.97 44-0.53 2.2-2.21 5.28-3.73 6.84-1.52 1.57-5.23 4.11-8.26 5.65-3.03 1.53-6.4 3.74-7.5 4.89l-2 2.1c3.88 1.42 13.78 2.16 24.5 2.56 10.72 0.41 25.13 0.43 32 0.06 8.02-0.43 13.22-1.17 14.5-2.05 1.98-1.37 1.97-1.42-0.5-4-1.37-1.43-4.53-3.26-7-4.05-2.47-0.79-5.49-2.47-6.7-3.72-2.08-2.15-2.26-3.61-3.2-26.28-0.55-13.2-1.28-37.05-1.62-53-0.33-15.95-1.03-33.05-1.55-38-0.73-6.89-1.74-10.64-4.33-16-1.87-3.85-5.61-9.47-8.32-12.5-2.72-3.03-6.93-6.68-9.36-8.11-2.43-1.44-6.67-3.33-9.42-4.21-2.75-0.87-7.7-2.06-11-2.65-4.15-0.73-8.24-0.75-13.25-0.05-3.99 0.56-10.74 2.13-15 3.48-4.26 1.36-10.55 4.17-13.97 6.25-3.42 2.09-10.29 7.28-15.25 11.54-4.97 4.26-9.25 7.75-9.53 7.75-0.28 0-2.39-2.81-4.71-6.25-2.31-3.44-6.03-8.22-8.25-10.62-2.22-2.4-5.73-5.21-7.79-6.25-2.06-1.03-7.01-2.74-11-3.8-3.99-1.06-9.72-2.15-12.75-2.43-3.03-0.28-8.65 0.08-12.5 0.81z"/>
		<path id="Path 65" class="s3" d="m1557.5 1252.88c-3.85 0.95-9.47 2.85-12.5 4.23-3.03 1.38-10.11 5.96-15.75 10.2-5.64 4.23-10.47 8.14-10.75 8.69-0.28 0.55-1.4 1-2.5 1-1.27 0-2.17-0.82-2.46-2.25-0.25-1.24-0.58-6.6-0.75-11.91-0.16-5.32-0.51-9.93-0.79-10.25-0.28-0.33-3.65 0.11-7.5 0.96-3.85 0.86-10.15 2.48-14 3.61-3.85 1.14-10.15 3.2-14 4.6-3.85 1.39-7.57 3.03-8.27 3.64-1.03 0.89-1 1.39 0.14 2.6 0.79 0.82 3.33 2.17 5.65 3 2.32 0.82 5.58 2.62 7.23 4 2.84 2.36 3.05 3.06 3.83 12.5 0.45 5.5 0.83 32.05 0.84 59 0.01 26.95-0.41 52.15-0.94 56-0.57 4.24-1.64 7.73-2.71 8.86-0.97 1.02-3.46 2.7-5.52 3.75-2.06 1.04-4.54 1.9-5.5 1.91-0.96 0.01-2.88 0.88-4.25 1.93-1.38 1.05-2.12 2.28-1.66 2.73 0.45 0.45 12.15 0.78 26 0.72 13.84-0.05 29.1-0.39 33.91-0.75 4.81-0.36 8.75-1.1 8.75-1.65 0-0.55-1.69-1.46-3.75-2.02-2.06-0.56-5.55-2.07-7.75-3.36-2.42-1.41-4.75-3.88-5.9-6.23-1.66-3.38-2.01-7.39-2.7-30.39-0.43-14.58-0.81-40.11-0.84-56.75l-0.06-30.25c12.01-10.06 18.88-14.72 23-16.84 4.13-2.12 10.2-4.44 13.5-5.15 4.59-0.99 7.53-1.04 12.5-0.21 3.58 0.6 8.64 2.01 11.25 3.14 2.61 1.13 7.07 4.42 9.91 7.31 2.83 2.89 6.01 7.27 7.07 9.75 1.39 3.26 2.19 8.76 2.92 20 0.56 8.52 0.86 33.5 0.68 55.5-0.31 37.92-0.44 40.21-2.37 44-1.67 3.28-3.34 4.63-9.27 7.5-3.97 1.92-7.23 3.95-7.23 4.5 0 0.55 1.7 1.33 3.77 1.74 2.07 0.41 13.44 0.74 25.27 0.75 11.83 0.01 24.99-0.32 29.26-0.74 4.27-0.41 7.77-0.98 7.78-1.25 0.01-0.28-3.25-2.17-7.26-4.21-5.01-2.55-8.06-4.86-9.78-7.42l-2.5-3.72-0.62-117.15c11.72-8.53 17.71-12.44 20.87-14.2 3.16-1.76 8.45-3.9 11.75-4.75 3.3-0.86 7.8-1.56 10-1.57 2.2-0.01 6.47 0.83 9.5 1.86 3.03 1.03 7.3 2.78 9.5 3.9 2.2 1.11 5.91 4.1 8.25 6.64 2.34 2.54 5.2 6.53 6.37 8.87 1.31 2.64 2.5 7.86 3.13 13.75 0.56 5.22 1.07 28.17 1.13 51 0.07 22.82-0.22 44.09-0.63 47.25-0.61 4.67-1.38 6.36-4.08 9-1.84 1.79-6.45 4.76-10.25 6.61-5.43 2.62-6.64 3.6-5.62 4.5 0.89 0.78 10.06 1.25 29 1.47 15.23 0.19 30.06 0.08 32.95-0.25 3.74-0.41 5.25-1.01 5.25-2.08 0-0.92-2.6-2.53-6.75-4.17-3.71-1.47-7.54-3.38-8.51-4.25-1.42-1.28-1.94-4.27-2.7-15.58-0.51-7.7-1.21-29.53-1.56-48.5-0.34-18.98-1.04-40.69-1.55-48.25-0.86-12.68-1.2-14.32-4.41-21-1.92-3.99-5.86-9.9-8.75-13.14-2.98-3.33-7.45-6.98-10.27-8.4-2.75-1.39-8.15-3.34-12-4.35-3.85-1-9.59-1.83-12.75-1.84-3.16-0.01-9.24 0.82-13.5 1.85-4.26 1.03-10.67 3.12-14.25 4.63-3.58 1.51-9.65 5.12-13.5 8.03-3.85 2.9-9.25 7.57-12 10.37-2.75 2.8-5.79 5.1-6.75 5.1-1.01 0-2.77-1.79-4.17-4.25-1.33-2.34-4.86-7.18-7.83-10.75-3.27-3.94-7.14-7.36-9.83-8.68-2.43-1.2-8.02-3.12-12.42-4.26-4.4-1.14-10.7-2.04-14-1.99-3.3 0.04-9.15 0.86-13 1.81z"/>
		<path id="Path 66" class="s4" d="m753 1251.12c-3.58 1.06-11.67 3.54-18 5.52-6.33 1.98-13.86 4.67-16.75 5.98-2.89 1.31-5.26 2.94-5.28 3.63-0.01 0.69 1 1.78 2.25 2.42 1.26 0.64 4.87 2.33 8.03 3.75 4.64 2.08 6.06 3.3 7.37 6.33 1.31 3.02 1.73 8.8 2.14 29.75 0.28 14.3 0.22 42.99-0.13 63.75l-0.63 37.75c-11.24 5.62-15.77 8.21-17.32 9.38-2.03 1.52-2.51 2.4-1.69 3.12 0.62 0.55 8.19 1.37 16.82 1.83 8.63 0.46 24.02 0.57 34.19 0.25 10.17-0.31 19.54-0.91 20.82-1.33 1.58-0.51 2.21-1.38 2-2.75-0.23-1.41-2.07-2.66-6.32-4.26-3.3-1.24-7.55-3.04-9.44-4-2.18-1.1-3.79-2.84-4.38-4.74-0.52-1.65-1.16-27.97-1.43-58.5l-0.49-55.5c9.87-9.16 14.99-13.32 17.74-15.16 4.02-2.69 5.98-3.34 10-3.33 3.72 0.01 7.18 1.03 13.5 3.99 4.67 2.19 9.63 3.99 11 4.01 1.38 0.03 3.46-0.98 4.63-2.23 1.16-1.26 2.63-3.29 3.25-4.53 0.61-1.24 1.54-5.06 2.06-8.5 0.54-3.65 0.57-7.71 0.06-9.75-0.66-2.67-1.78-3.94-4.68-5.37-2.1-1.02-5.84-2.09-8.32-2.36-2.48-0.28-7.2 0.04-10.5 0.71-3.3 0.67-8.81 2.52-12.25 4.12q-6.25 2.9-13 9.66c-3.71 3.72-8.28 8.78-10.14 11.25-2.68 3.55-3.57 4.18-4.23 2.99-0.47-0.82-0.89-5.77-0.94-11-0.05-5.22-0.39-11.49-0.76-13.92-0.38-2.43-1.13-4.52-1.68-4.65-0.55-0.13-3.92 0.63-7.5 1.69z"/>
		<path id="Path 67" class="s3" d="m754.5 1252.47c-2.2 0.72-8.5 2.53-14 4.03-5.5 1.49-12.92 3.85-16.5 5.25-3.58 1.41-7.17 3.14-8 3.85-1.29 1.12-0.94 1.54 2.5 2.98 2.2 0.93 5.58 2.49 7.5 3.48 1.92 0.99 4.4 2.99 5.5 4.44 1.94 2.57 2.01 4.45 2.32 68.32l0.33 65.68c-14.84 7.36-19.15 9.84-19.16 10.25 0 0.41 3.48 1.09 7.75 1.5 4.27 0.42 18.34 0.73 31.26 0.7 12.92-0.04 25.25-0.38 27.4-0.76 2.14-0.38 3.87-1.14 3.85-1.69-0.03-0.55-4.03-2.46-8.9-4.24-4.87-1.79-9.2-3.59-9.63-4-0.42-0.42-1.2-3.91-1.71-7.76-0.52-3.85-0.96-30.96-0.98-60.25l-0.03-53.25c7.36-5.79 11.52-9.18 14-11.28 2.48-2.1 6.52-4.54 9-5.43 3.9-1.4 5.24-1.45 10-0.32 3.02 0.71 8.77 2.92 12.77 4.91 5.68 2.83 7.65 3.39 9 2.56 0.95-0.58 2.84-3.28 4.19-6 1.88-3.77 2.47-6.57 2.5-11.81 0.04-6.4-0.15-7.02-2.79-9-1.98-1.49-4.7-2.24-9-2.5-3.4-0.21-8.65 0.19-11.67 0.87-3.02 0.68-8.42 2.71-12 4.51-3.91 1.96-8.51 5.4-11.55 8.63-2.77 2.95-6.41 7.39-8.08 9.86-1.68 2.47-3.79 4.84-4.71 5.25-0.97 0.44-2.07 0.24-2.66-0.5-0.54-0.69-1.26-7.66-1.59-15.5-0.41-9.84-0.95-14.23-1.75-14.17-0.64 0.04-2.96 0.67-5.16 1.39z"/>
		<path id="Path 68" class="s4" d="m883.03 1215.19c-1.74 2.37-5.44 8.36-8.23 13.31-2.79 4.95-7.03 11.59-9.44 14.75-3.52 4.65-5.65 6.34-11.11 8.84-3.71 1.7-8.28 3.83-10.14 4.75-1.87 0.91-4.12 3.11-5 4.89-0.89 1.77-1.24 3.57-0.78 4 0.45 0.42 5.85 0.99 12 1.27l11.17 0.5c0.35 24.8 0.93 51.12 1.53 74.5 0.59 23.37 1.45 46.55 1.91 51.5 0.46 4.95 1.39 11.03 2.07 13.5 0.92 3.32 2.71 5.89 6.87 9.81 3.09 2.92 7.65 6.26 10.12 7.42 2.48 1.15 7.88 2.52 12 3.03 4.94 0.62 10.23 0.57 15.5-0.13 6.35-0.85 10.06-2.11 18-6.13 5.5-2.78 12.14-6.84 14.75-9.03 2.61-2.18 4.76-4.76 4.78-5.72 0.02-0.96-0.77-2.53-1.75-3.47-0.98-0.95-2.34-1.74-3.03-1.75-0.69-0.02-5.41 1.59-10.5 3.58-8.27 3.23-9.99 3.56-16.25 3.16-4.37-0.28-8.5-1.23-11-2.53-2.2-1.14-5.86-4.02-8.13-6.41l-4.13-4.33c-1.11-113.38-0.98-126.61 0.01-127.02 0.69-0.28 6.65-0.16 13.25 0.27 6.6 0.43 17.17 0.55 23.5 0.27l11.5-0.52v-14l-49.5-0.5c-0.18-27.51-0.52-36.85-0.87-38.5-0.49-2.3-1.26-3.07-3.29-3.31-2.14-0.25-3.26 0.53-5.81 4z"/>
		<path id="Path 69" class="s3" d="m886.86 1213.08c-0.9 0.56-4.21 5.38-7.36 10.72-3.14 5.33-7.65 12.63-10.03 16.2-2.37 3.58-6.04 7.9-8.14 9.6-2.11 1.71-6.08 4.08-8.83 5.27-2.75 1.18-6.53 2.94-8.41 3.89-1.87 0.96-3.78 2.75-4.25 3.99l-0.84 2.25c19.79 0 23.13 0.35 23.46 1.25 0.25 0.69 0.93 24.43 1.52 52.75 0.59 28.33 1.51 58.25 2.04 66.5 0.54 8.25 1.61 17.25 2.39 20 1.01 3.54 2.83 6.42 6.26 9.89 2.66 2.69 7.31 6.06 10.33 7.5 5.08 2.41 6.49 2.61 18.5 2.55 11.25-0.05 13.81-0.38 19-2.43 3.3-1.31 10.05-5.11 15-8.44 7.32-4.94 9-6.54 9-8.57 0-1.72-0.62-2.6-2-2.83-1.1-0.18-5.6 1.09-10 2.82-6.46 2.55-9.44 3.16-15.5 3.16-5.2 0-8.88-0.59-12-1.93-2.48-1.07-6.59-4.14-9.15-6.83l-4.65-4.89c-0.93-30.22-1.2-59.36-1.2-84.25 0-35.49 0.27-45.27 1.25-45.33 0.69-0.05 11.71-0.05 24.5 0l23.25 0.08v-11c-42.14 0-48.18-0.31-48.73-1.25-0.41-0.69-0.97-10.21-1.25-21.17-0.31-11.96-0.92-20.04-1.52-20.22-0.55-0.16-1.74 0.16-2.64 0.72z"/>
		<path id="Path 70" class="s4" d="m1038.1 1177.91c-3.42 0.37-5.8 1.2-6.5 2.25-0.8 1.22-0.8 2.02 0.03 3 0.63 0.74 4 2.13 7.5 3.09 3.94 1.09 7.99 3.09 10.62 5.25 2.85 2.35 4.57 4.73 5.22 7.25 0.53 2.06 1.42 14.55 1.96 27.75 0.54 13.2 0.78 55.5 0.53 94-0.26 38.5-0.88 73.6-1.38 78-0.84 7.34-1.19 8.23-4.25 10.79-1.83 1.54-5.5 3.56-8.16 4.5-2.65 0.94-6.25 2.91-8 4.38-2.61 2.2-2.94 2.9-1.87 4 0.78 0.8 4.95 1.59 10.5 1.99 5.06 0.36 18.65 0.67 30.2 0.69 11.55 0.02 25.59-0.27 31.19-0.66 6.04-0.41 10.72-1.21 11.5-1.97 0.99-0.96 1.04-1.7 0.2-3-0.61-0.95-2.63-2.27-4.5-2.93-1.86-0.67-5.3-1.69-7.64-2.25-2.49-0.61-5.94-2.59-8.33-4.79l-4.09-3.75c-1.44-19.38-1.74-41.88-1.6-62.5l0.27-37.5h125c-0.27 76.9-0.73 95.55-1.42 98.25-0.81 3.18-2.02 4.88-4.83 6.76-2.06 1.37-6.67 3.45-10.25 4.61-3.57 1.16-7.4 2.95-8.5 3.98-1.64 1.54-1.77 2.1-0.69 3.14 0.8 0.77 6.22 1.58 14 2.1 6.98 0.46 24.62 0.63 39.19 0.38 16.9-0.28 27.31-0.86 28.75-1.58 1.27-0.65 2.14-1.9 1.99-2.89-0.15-0.96-1.83-2.51-3.75-3.44-1.92-0.93-6.08-2.84-9.24-4.25-3.16-1.41-6.43-3.57-7.26-4.81-0.89-1.32-1.93-6.59-2.52-12.75-0.62-6.42-0.9-46.83-0.74-103.94l0.27-93.44c7.75-6.4 12.87-9.35 16.38-10.69 3.7-1.41 6.78-3.27 7.34-4.43 0.71-1.48 0.54-2.39-0.67-3.5-1.38-1.28-7.45-1.5-41.54-1.5-31.06 0-40.2 0.28-41.21 1.28-0.97 0.95-1.02 1.71-0.2 3 0.6 0.95 2.18 2.26 3.5 2.93 1.32 0.66 4.99 2.35 8.15 3.75 3.16 1.4 6.92 3.78 8.36 5.29 1.44 1.51 3.06 3.87 3.62 5.25 0.61 1.53 1.06 19.56 1.14 46.25l0.13 43.75c-23.25 0.05-47.32 0.11-68.5 0.16-21.17 0.06-42.66 0.05-47.75-0.03l-9.25-0.13c0.08-49.21 0.46-69.58 0.9-77 0.63-10.67 1.19-14.1 2.7-16.35 1.04-1.56 3.7-3.86 5.9-5.11 2.2-1.25 5.8-2.85 8-3.56 2.2-0.7 5.01-1.89 6.25-2.63 1.24-0.74 2.25-2.03 2.25-2.85 0-0.83-0.79-1.77-1.75-2.1-0.96-0.33-9.4-0.98-18.75-1.45-9.35-0.46-25.1-0.8-35-0.73-9.9 0.06-20.43 0.37-23.4 0.69z"/>
		<path id="Path 71" class="s3" d="m1213 1178.7c-10.72 0.2-19.95 0.8-20.5 1.33q-0.99 0.97 1 2.46c1.1 0.83 4.03 2.05 6.5 2.73 2.47 0.67 6.3 2.42 8.5 3.88 2.2 1.46 5.06 4.4 6.36 6.53 1.72 2.83 2.59 6.28 3.22 12.87 0.48 4.95 0.9 24.97 0.94 44.5 0.05 27.83-0.21 35.76-1.23 36.72-0.99 0.95-15.75 1.18-64.29 1l-63-0.22c-0.41-51.92-0.18-72.92 0.24-80.17 0.63-10.97 1.1-13.63 2.83-16 1.14-1.55 4.74-4.28 8-6.05 3.26-1.77 6.83-3.25 7.93-3.27 1.1-0.03 3.13-0.88 4.5-1.89 2.42-1.78 2.44-1.87 0.5-2.7-1.1-0.48-19.78-1.01-41.5-1.18-31.31-0.24-39.64-0.03-40.19 0.98-0.38 0.7-0.16 1.86 0.5 2.58 0.65 0.71 2.77 1.53 4.69 1.82 1.92 0.29 4.85 1.05 6.5 1.68 1.65 0.63 4.72 2.74 6.83 4.68 2.66 2.45 4.34 5.2 5.5 9.02 1.51 4.98 1.67 14.55 1.65 100.5-0.01 70.28-0.33 96.56-1.23 101-0.96 4.77-1.91 6.62-4.62 9-1.88 1.65-5.6 3.75-8.27 4.68-2.67 0.92-5.98 2.57-7.36 3.66-1.37 1.09-2.13 2.36-1.67 2.82 0.46 0.46 15.53 0.99 33.5 1.17 17.97 0.19 35.93 0.08 39.92-0.25 5.52-0.44 7.25-0.94 7.25-2.08 0-0.83-0.79-1.88-1.75-2.34-0.96-0.46-4.87-1.7-8.67-2.75-5.16-1.42-7.78-2.8-10.29-5.41-1.85-1.92-3.69-4.63-4.08-6-0.39-1.38-0.71-24.33-0.71-51v-48.5h128c0.42 38.75 0.15 60.8-0.34 74-0.68 18.54-1.26 24.85-2.52 27.75-0.9 2.06-2.83 4.54-4.29 5.5-1.45 0.96-6.25 3.1-10.66 4.75-4.41 1.65-7.99 3.45-7.96 4 0.02 0.55 2.23 1.37 4.91 1.82 2.67 0.45 20.39 0.67 39.36 0.5 18.97-0.18 35.06-0.66 35.75-1.07 1-0.6 1-1.06 0-2.3-0.69-0.85-3.95-2.41-7.25-3.46-3.3-1.05-7.24-2.83-8.75-3.95-1.51-1.12-3.54-3.5-4.5-5.29-1.63-3.03-1.77-10.36-2.01-106.25l-0.27-103c3.51-3.65 6.56-6.1 9.03-7.79 2.47-1.69 6.75-3.77 9.5-4.64 3.88-1.22 5.06-2.07 5.25-3.82 0.25-2.23 0.15-2.25-13-2.25-7.29 0.01-16.63-0.14-20.75-0.33-4.12-0.19-16.28-0.17-27 0.03z"/>
		<path id="Path 72" class="s4" d="m136.5 1173.6c-1.65 0.23-7.28 1.39-12.5 2.56-5.22 1.18-12.2 3.25-15.5 4.61-3.3 1.36-8.47 4.15-11.5 6.21-3.03 2.06-7.97 6.4-11 9.66-3.03 3.25-7.16 9.05-9.19 12.89-2.03 3.83-4.44 10.12-5.36 13.97-1.25 5.28-1.53 9.82-1.16 18.5 0.34 7.59 1.2 13.71 2.56 18 1.13 3.58 3.92 9.2 6.2 12.5 2.28 3.3 6.46 8.41 9.3 11.36 2.83 2.94 8.98 7.83 13.65 10.87 4.67 3.03 10.75 6.66 13.5 8.05 2.75 1.39 14.45 6.97 26 12.39 11.55 5.42 24.54 11.99 28.86 14.6 4.32 2.6 10.18 7.2 13.02 10.23 2.84 3.03 6.39 7.97 7.89 11 1.51 3.03 3.16 7.97 3.67 11 0.57 3.37 0.58 8.98 0.01 14.5-0.6 5.96-1.73 10.69-3.34 14-1.42 2.93-5.09 7.48-8.87 11-3.55 3.3-8.88 7.22-11.85 8.71-2.96 1.49-8.32 3.18-11.89 3.75-3.57 0.56-10.55 1.03-15.5 1.04-4.95 0.01-11.47-0.43-14.5-0.98-3.03-0.56-9.1-2.79-13.5-4.96-4.4-2.17-10.92-6.39-14.5-9.37-3.58-2.98-8.36-8.06-10.63-11.3-2.27-3.24-6.83-11.29-10.13-17.89-3.31-6.6-6.96-12.9-8.11-14-1.87-1.78-2.26-1.84-3.66-0.5-1.19 1.15-1.54 3.51-1.47 10 0.05 4.68 0.64 17.12 1.3 27.66 0.66 10.54 1.42 19.39 1.7 19.67 0.28 0.29 9.05 3.04 19.5 6.12 10.45 3.08 21.92 6.07 25.5 6.65 3.58 0.58 16.18 1.02 28 0.99 18.3-0.04 22.69-0.36 29.5-2.11 4.4-1.12 11.38-3.87 15.5-6.1 4.13-2.22 9.94-5.92 12.93-8.21 2.98-2.3 7.38-6.64 9.77-9.67 2.4-3.03 5.43-7.3 6.75-9.5 1.32-2.2 3.86-8.28 5.64-13.5 2.84-8.34 3.24-10.79 3.24-20 0.01-6.76-0.61-12.82-1.71-17-0.95-3.57-3.16-9.39-4.92-12.92-1.76-3.53-6.13-9.56-9.7-13.4-3.57-3.84-8.97-8.63-12-10.65-3.03-2.03-8.88-5.53-13-7.78-4.13-2.26-16.72-8.42-28-13.71-11.28-5.28-24.78-11.94-30-14.8-6.37-3.48-11.66-7.34-16.05-11.72-5.32-5.29-6.97-7.74-8.8-13.02-1.24-3.57-2.5-9.42-2.81-13-0.31-3.57-0.04-9.2 0.59-12.5 0.63-3.3 1.92-7.54 2.86-9.42 0.94-1.88 3.96-5.74 6.71-8.58 3.18-3.28 7.54-6.36 12-8.47 5.22-2.46 9.03-3.48 15-4 4.4-0.38 10.93-0.38 14.5 0.01 3.57 0.39 8.97 1.42 12 2.31 3.03 0.88 7.75 3.06 10.5 4.83 2.75 1.77 7.93 6.17 11.5 9.77 5.2 5.24 7.84 9.16 13.17 19.55 3.66 7.15 7.49 13.81 8.5 14.8 1 0.99 2.73 1.66 3.83 1.48 1.62-0.26 1.99-1.08 1.96-4.3-0.03-2.19-0.61-12.08-1.29-21.98-0.69-9.9-1.45-19.91-1.71-22.25-0.4-3.74-0.85-4.38-3.71-5.33-1.79-0.59-8.43-2.62-14.75-4.51-6.32-1.88-16.22-4.35-22-5.47-5.78-1.12-14.78-2.2-20-2.41-5.22-0.2-10.85-0.17-12.5 0.07z"/>
		<path id="Path 73" class="s4" d="m103.99 1250.26c0 0.68 3.27 4.29 7.26 8.02 3.99 3.73 9.95 8.16 13.25 9.86 3.3 1.69 11.29 5.73 17.75 8.97 6.46 3.24 11.97 5.89 12.25 5.89 0.28 0 8.04 3.74 17.25 8.31 9.21 4.57 19.45 10.03 22.75 12.13 3.3 2.1 9.26 7.14 13.25 11.19 5.09 5.17 8.29 9.53 10.75 14.62 1.92 3.99 4.23 10.63 5.13 14.75 1.14 5.23 1.48 10.22 1.13 16.5-0.33 5.78-1.44 11.86-3.11 17-1.44 4.4-4.23 10.7-6.22 14-1.99 3.3-5.83 8.59-8.53 11.75-2.69 3.16-4.45 5.75-3.9 5.75 0.55 0 2.84-2.14 5.08-4.75 2.25-2.61 5.72-7.22 7.73-10.25 2-3.03 5.2-10 7.09-15.5 3.09-8.94 3.46-11.11 3.45-20.5-0.01-6.71-0.63-12.84-1.73-17-0.95-3.58-3.16-9.39-4.92-12.92-1.76-3.53-6.13-9.56-9.7-13.4-3.57-3.84-8.97-8.63-12-10.65-3.03-2.03-8.87-5.53-13-7.78-4.12-2.26-16.72-8.42-28-13.71-11.28-5.28-24.78-11.94-30-14.8-6.53-3.57-11.61-7.31-16.26-11.96-3.72-3.72-6.76-6.21-6.75-5.52z"/>
		<path id="Path 74" class="s3" d="m135 1175.55c-4.13 0.73-9.97 1.85-13 2.48-3.03 0.64-8.42 2.32-12 3.74-3.58 1.43-9.2 4.48-12.5 6.78-3.3 2.31-8.03 6.45-10.5 9.2-2.47 2.74-6.07 7.64-7.98 10.87-1.92 3.23-4.32 8.81-5.33 12.38-1.24 4.38-1.85 9.92-1.88 17-0.02 6.32 0.61 13.19 1.58 17.25 0.89 3.71 2.74 9 4.11 11.75 1.38 2.75 4.86 7.82 7.75 11.26 2.89 3.44 7.95 8.27 11.25 10.74 3.3 2.46 10.72 7.13 16.5 10.38 5.78 3.24 12.08 6.56 14 7.36 1.93 0.81 10.7 4.88 19.5 9.05 8.8 4.17 19.6 9.74 24 12.39 4.4 2.64 10.4 7.17 13.33 10.06 3.31 3.27 6.71 8.07 9 12.71 3.19 6.48 3.71 8.55 4.02 16 0.19 4.7-0.19 11.25-0.84 14.55-0.65 3.3-2.38 8.2-3.85 10.88-1.46 2.69-5.36 7.43-8.66 10.54-3.3 3.1-8.93 7.09-12.5 8.86-5.46 2.69-8.42 3.4-18.5 4.38-10.44 1.02-13.3 0.95-22-0.55-7.54-1.3-11.6-2.62-16.5-5.36-3.58-2-8.94-5.46-11.93-7.69-2.99-2.23-7.84-6.98-10.78-10.56-3.05-3.71-7.75-11.44-10.93-18-3.07-6.33-6.43-12.74-7.47-14.25-1.04-1.51-2.34-2.75-2.89-2.75-0.55 0-1.27 1.01-1.6 2.25-0.33 1.24-0.1 9.9 0.53 19.25 0.62 9.35 1.35 20.6 1.63 25l0.49 8c6.55 2.53 12.05 4.44 16.45 5.88 4.4 1.44 12.72 3.82 18.5 5.3 10.04 2.56 11.61 2.68 36 2.68 24.45-0.01 25.81-0.11 33-2.48 4.13-1.37 11.32-4.71 16-7.43 4.91-2.86 11.04-7.55 14.5-11.1 3.3-3.38 7.69-9.01 9.76-12.5 2.07-3.49 4.94-9.95 6.38-14.35 1.68-5.16 2.79-11.2 3.12-17 0.35-6.28 0.01-11.27-1.13-16.5-0.9-4.12-3.21-10.76-5.13-14.75-2.46-5.09-5.66-9.45-10.75-14.62-3.99-4.05-9.95-9.09-13.25-11.19-3.3-2.1-13.54-7.56-22.75-12.13-9.21-4.57-16.97-8.31-17.25-8.31-0.28 0-6.01-2.77-12.75-6.16-6.74-3.39-14.28-7.16-16.75-8.37-2.47-1.21-7.62-4.84-11.42-8.08-3.81-3.24-8.04-7.69-9.4-9.89-1.36-2.2-3.1-5.8-3.86-8-0.76-2.2-1.81-6.7-2.32-10-0.61-3.86-0.59-8.5 0.06-13 0.55-3.85 2-9.03 3.21-11.5 1.22-2.47 4.46-6.78 7.22-9.58 3.13-3.17 7.99-6.54 12.96-9l7.95-3.92c26.22 0.04 28.97 0.36 34.6 2.39 3.57 1.28 8.97 4.05 12 6.15 3.03 2.1 6.85 5.1 8.5 6.67 1.65 1.57 5.09 5.76 7.64 9.32 2.55 3.56 6.69 10.75 9.19 15.97 2.5 5.22 5.48 10.4 6.61 11.5 1.14 1.1 2.41 1.63 2.82 1.18 0.41-0.45-0.16-12-1.26-25.66l-2-24.84c-23.31-7.33-35.08-10.11-44.5-11.64-8.53-1.39-16.63-2.48-18-2.43-1.38 0.06-5.88 0.7-10 1.44z"/>
		<path id="Path 75" class="s0" d="m610 1075.75c0 0.41 6.64 0.63 14.75 0.48 8.11-0.14 16.77-0.4 19.25-0.57 2.48-0.16-4.16-0.38-14.75-0.48-10.59-0.1-19.25 0.16-19.25 0.57z"/>
		<path id="Path 76" class="s2" d="m741.5 1073.95c1.65 0.41 9.3 0.59 17 0.4 7.7-0.19 14.19-0.57 14.42-0.85 0.23-0.27-7.42-0.45-17-0.4-9.84 0.06-16.11 0.43-14.42 0.85z"/>
		<path id="Path 77" class="s0" d="m739 1074.65c2.11 1.49 4.78 1.77 17 1.8 12.37 0.02 14.87-0.24 17-1.77l2.5-1.79c-4.65 1.1-12.08 1.45-19.5 1.5-7.42 0.04-14.85-0.28-16.5-0.71l-3-0.79z"/>
		<path id="Path 78" class="s2" d="m596 1074c1.92 0.41 3.05 0.8 2.5 0.88-0.55 0.08-0.33 0.56 0.5 1.07 0.83 0.5 3.64 0.94 6.25 0.98 2.61 0.04 4.75-0.38 4.75-0.93 0-0.64 6.94-0.92 19.25-0.78l19.25 0.21-37 1.17c36.81 0.31 47.49 0.06 47.48-0.35 0-0.41 1.23-1.26 2.75-1.89 2.15-0.89-5.29-1.14-33.23-1.12-19.8 0.01-34.42 0.35-32.5 0.76z"/>
		<path id="Path 79" class="s0" d="m1025.5 1072.75c12.65 0.16 32.9 0.16 45 0 12.1-0.16 1.75-0.29-23-0.29-24.75 0-34.65 0.13-22 0.29z"/>
		<path id="Path 80" class="s4" d="m773 1073c1.38 0.44 5.2 0.84 8.5 0.89 3.3 0.04 6.67-0.36 7.5-0.89 1.02-0.66-1.71-0.94-8.5-0.89-6.53 0.06-9.13 0.37-7.5 0.89z"/>
		<path id="Path 81" class="s4" d="m665.5 1073.06c2.2 0.45 19.08 0.81 37.5 0.78 18.42-0.02 34.63-0.4 36-0.84 1.38-0.44-15.5-0.79-37.5-0.79-23.7 0.01-38.37 0.36-36 0.85z"/>
		<path id="Path 82" class="s0" d="m1129 1071.73c2.47 0.21 6.08 0.21 8 0 1.92-0.22-0.1-0.39-4.5-0.39-4.4 0.01-5.97 0.18-3.5 0.39z"/>
		<path id="Path 83" class="s0" d="m909 1071.75c12.38 0.16 32.85 0.16 45.5 0 12.65-0.16 2.52-0.29-22.5-0.29-25.02 0-35.38 0.13-23 0.29z"/>
		<path id="Path 84" class="s0" d="m872.5 1070.73c2.2 0.21 6.02 0.21 8.5 0 2.48-0.21 0.67-0.38-4-0.38-4.67 0-6.7 0.17-4.5 0.38z"/>
		<path id="Path 85" class="s0" d="m793.2 1062.25c-0.12 4.77-0.58 7.56-1.2 7.25-0.58-0.29-0.73 0.23-0.36 1.25 0.61 1.67 0.68 1.67 1.5 0 0.47-0.96 0.72-5.01 0.56-9l-0.3-7.25z"/>
		<path id="Path 86" class="s2" d="m792.19 1060c-0.12 4.67-0.45 9.63-0.73 11l-0.52 2.5c1.67-3.88 2-8.82 1.81-13.5l-0.34-8.5z"/>
		<path id="Path 87" class="s2" d="m679.46 829.5c0 25.85 0.13 36.65 0.29 24 0.16-12.65 0.16-33.8 0-47-0.16-13.2-0.29-2.85-0.29 23z"/>
		<path id="Path 88" class="s0" d="m679.35 775c0 4.67 0.17 6.48 0.38 4 0.21-2.48 0.21-6.3 0-8.5-0.21-2.2-0.38-0.17-0.38 4.5z"/>
		<path id="Path 89" class="s2" d="m1505.5 744.11c-4.95 2.24-15.97 6.54-24.5 9.57-11.79 4.18-21.84 6.79-42 10.91-14.58 2.99-34.15 6.78-43.5 8.43-9.35 1.65-21.28 4.09-26.5 5.43-5.22 1.34-13.55 3.55-18.5 4.92-4.95 1.37-11.25 3.47-14 4.67-2.75 1.21-9.72 4.42-15.5 7.15-5.78 2.73-13.65 7.02-17.5 9.55-3.85 2.52-9.7 6.65-13 9.17-3.3 2.53-9.1 7.51-12.89 11.09-3.79 3.58-10.14 10.33-14.1 15-3.97 4.67-10.14 13-13.73 18.5-3.59 5.5-8.98 14.95-11.98 21-3.01 6.05-6.42 13.7-7.59 17-1.17 3.3-3.49 10.73-5.17 16.5-1.67 5.77-3.71 14.77-4.53 20-0.82 5.23-2.01 24.12-2.63 42-0.63 17.87-0.83 38.35-0.43 45.5 0.46 8.46 1.03 12.48 1.62 11.5q0.89-1.48 0.91-0.25c0.01 0.69 0.44 1.14 0.95 1 0.52-0.14 4.46-5.21 8.75-11.28 4.3-6.07 9.43-13.05 11.39-15.5 1.97-2.46 7.33-9.2 11.92-14.97 4.58-5.77 11.3-13.83 14.92-17.9 3.63-4.06 11.09-12.11 16.59-17.87 5.5-5.77 15.63-15.54 22.5-21.71 6.88-6.17 16.78-14.55 22.02-18.62 5.24-4.07 18.06-13.08 28.5-20.03 10.44-6.94 24.83-16.48 31.98-21.18 7.15-4.7 16.15-10.76 20-13.45 3.85-2.7 10.04-7.23 13.75-10.07 3.71-2.84 7.65-5.17 8.75-5.17 1.1 0 2.79 1.15 3.75 2.56 1.39 2.03 1.52 3.01 0.64 4.75-0.61 1.2-3.98 5.77-7.5 10.15-3.51 4.38-8.86 10.63-11.89 13.9-3.03 3.26-8.65 8.5-12.5 11.65-3.85 3.14-12.62 10.07-19.5 15.38-6.87 5.32-14.69 11.34-17.37 13.39-2.68 2.05-8.53 6.56-13 10.03-4.47 3.47-11.28 8.93-15.13 12.13-3.85 3.2-12.67 11.61-19.59 18.69-6.93 7.08-15.07 15.57-18.11 18.87-3.03 3.3-9.3 10.73-13.93 16.5-4.63 5.77-11.6 14.77-15.48 20-3.88 5.23-10.22 14.22-14.08 20-3.86 5.78-9.19 13.87-11.84 18-2.65 4.12-5.87 9.86-7.14 12.75-1.28 2.89-2.33 6.15-2.33 7.25 0 1.37 0.86 2.18 2.75 2.59 1.51 0.32 13.55 0.56 26.75 0.52 13.2-0.03 30.3-0.54 38-1.12 7.7-0.59 20.53-2.2 28.5-3.57 7.97-1.37 18.55-3.45 23.5-4.6 4.95-1.16 12.6-3.37 17-4.91 4.4-1.54 10.75-3.83 14.12-5.1 3.36-1.27 11.69-5.36 18.5-9.1 6.81-3.73 16.43-9.76 21.38-13.41 4.95-3.64 13.5-11.17 19-16.74 5.5-5.56 12.98-13.93 16.63-18.59 3.65-4.66 9.47-12.97 12.93-18.47 3.46-5.5 8.51-14.73 11.22-20.5 2.71-5.77 6.02-13.42 7.36-17 1.35-3.58 3.99-11.9 5.88-18.5 1.88-6.6 4.53-17.17 5.88-23.5 1.35-6.33 2.95-16.9 3.55-23.5 0.6-6.6 1.54-16.05 2.08-21 0.54-4.95 1.41-16.88 1.93-26.5 0.53-9.63 1.51-32.58 2.19-51 0.68-18.42 0.93-34.29 0.55-35.25-0.39-0.96-1.04-1.74-1.45-1.73-0.41 0-4.8 1.84-9.75 4.09z"/>
		<path id="Path 90" class="s0" d="m1164.97 866c0.02 87.73-0.16 165.13-0.41 172l-0.44 12.5c1.48-15.64 2-90.29 2.13-181.17 0.14-88.64-0.1-161.54-0.53-162-0.43-0.46-0.76 70.94-0.75 158.67z"/>
		<path id="Path 91" class="s0" d="m1165.42 687.5c0 10.45 0.15 14.5 0.33 9 0.18-5.5 0.18-14.05-0.01-19-0.18-4.95-0.32-0.45-0.32 10z"/>
		<path id="Path 92" class="s0" d="m1164.38 654c0 6.33 0.16 8.8 0.36 5.5 0.2-3.3 0.2-8.48 0-11.5-0.2-3.02-0.36-0.33-0.36 6z"/>
		<path id="Path 93" fill-rule="evenodd" class="s1" d="m1016.5 617.26c114.14 0 127.25 0.16 129.5 1.58 1.38 0.88 4.47 3.18 6.89 5.12 2.41 1.95 5.77 5.56 10.53 12.54l0.83 20.5c0.45 11.27 0.68 104.2 0.5 206.5-0.25 141.91-0.62 186.89-1.54 189.75-0.7 2.16-3.64 6.21-6.96 9.55-5.3 5.35-6.26 5.9-12.25 6.97-3.58 0.64-11.67 1.43-18 1.77-6.33 0.33-49.3 0.69-95.5 0.78-46.2 0.1-77.02-0.04-68.5-0.32 9.73-0.31-5.17-0.77-40-1.22-30.52-0.4-57.98-1.13-61-1.62-4.76-0.78-6-1.48-9.25-5.28-2.06-2.41-4.65-6.29-5.75-8.63-1.1-2.34-2.52-6.84-3.15-10-0.82-4.15-1.26-56.22-1.55-186.75-0.25-110.99-0.03-187.58 0.57-198 0.68-11.85 1.55-18.67 2.86-22.5 1.03-3.02 3.2-7.2 4.82-9.28 1.62-2.08 4.75-4.84 6.95-6.13 2.2-1.29 5.58-2.69 7.5-3.12 1.92-0.42 8.45-1.1 14.5-1.49 6.05-0.4 68.15-0.73 138-0.72zm-128.5 48.74c-1.09 5.81-1.39 19.42-1.37 34 0.02 14.58 0.34 29.42 0.71 33 0.38 3.58 1.32 7.4 2.09 8.5 1.39 1.97 2.68 2 93.24 2.23 50.51 0.13 101.28-0.17 112.83-0.66 11.55-0.49 21.79-1.15 22.75-1.48 1.18-0.4 1.99-2.15 2.48-5.34 0.4-2.61 0.68-17.8 0.63-33.75-0.05-15.95-0.49-30.31-0.98-31.91-0.59-1.97-1.86-3.24-3.88-3.91-1.88-0.61-40.46-1.04-103-1.15-55-0.09-105.74-0.02-112.75 0.15zm90.48 137.7c-0.82 1.03-1.69 5.24-2.03 9.8-0.33 4.4-0.11 13.63 0.48 20.5 0.67 7.83 1.63 13.34 2.57 14.75 1.06 1.59 2.75 2.38 5.75 2.67 2.34 0.24 13.25 0.22 24.25-0.03 11-0.25 20.22-0.71 20.5-1.02 0.28-0.31 0.81-2.88 1.18-5.71 0.38-2.84 0.61-13.13 0.5-22.87-0.16-15.52-0.4-17.94-1.97-19.5-1.57-1.58-4.03-1.81-21-1.97-10.56-0.1-21.37 0.21-24.01 0.7-2.64 0.48-5.44 1.69-6.22 2.68zm90.27-1.82c-1.6 0.11-1.74 1.65-1.67 17.87 0.05 9.77 0.39 20.31 0.75 23.44 0.37 3.13 1.26 6.28 1.97 7 0.95 0.96 5.45 1.35 16.5 1.45 8.36 0.07 19.61-0.15 25-0.5l9.81-0.64c-0.49-37.79-1.02-47.79-1.61-48.35-0.55-0.52-5.5-1.16-11-1.42-5.5-0.26-16.3-0.13-24 0.28-7.7 0.41-14.79 0.8-15.75 0.87zm-180.98 24.72l0.23 24.4h53v-50c-39.14 0.13-51.17 0.39-51.98 0.67-1.26 0.44-1.45 4.14-1.25 24.93zm-0.94 86.32l0.16 24.58c32.17-1.14 44.32-1.48 47.76-1.49l6.25-0.01v-47c-6.59-0.73-18.54-1.09-30.81-1.26-12.26-0.17-22.58-0.11-22.91 0.14-0.34 0.25-0.54 11.52-0.45 25.04zm90.07-4.73c0.05 8.97 0.43 18.5 0.84 21.18 0.51 3.28 1.41 5.23 2.76 6 1.23 0.7 7.18 1.11 15.5 1.08 7.42-0.03 18.34-0.14 24.25-0.25l10.75-0.2 0.03-46.5c-8.16-1.15-19.85-1.48-31.25-1.49-19.44-0.01-20.79 0.11-21.84 1.93-0.71 1.22-1.09 7.9-1.04 18.25zm90.74-18.25l0.36 46.06h53l-0.5-46.75c-9.3-0.97-20.1-1.23-30-1.19-9.9 0.04-19.09 0.48-20.43 0.97zm-180.64 133.07h55c-0.99-37.59-1.33-48.56-1.39-48.63-0.06-0.07-12.11-0.45-26.77-0.83l-26.67-0.71zm183.25-48.48l-2.25 0.48v47h53l-0.13-49.05c-30.51 0.36-41.39 0.61-43.87 0.77-2.47 0.17-5.51 0.53-6.75 0.8zm-92.55 10.52c-0.1 5.2-0.07 15.65 0.06 23.21l0.24 13.75h53v-48c-39.13 0.03-51.09 0.38-51.81 0.8-0.91 0.54-1.36 3.65-1.49 10.24z"/>
		<path id="Path 94" class="s0" d="m901 1023.75c7.98 0.17 20.58 0.17 28 0 7.42-0.17 0.9-0.31-14.5-0.31-15.4 0-21.48 0.14-13.5 0.31zm169.5-0.75l3 0.76c-4.65 0.41-2.85 0.89 1 1.33 3.85 0.44 13.53 0.73 21.5 0.65 7.97-0.09 16.97-0.44 20-0.79 4.53-0.51 4.88-0.68 2-0.92l-3.5-0.29c5.42-1.15-5.15-1.48-20-1.49-14.85-0.01-25.65 0.33-24 0.75zm-89.5 0l3.5 0.74c-6.04 0.49-5.22 0.77-0.5 1.3 3.58 0.4 12.69 0.78 20.25 0.84 10.08 0.09 14.62-0.27 17-1.33 1.79-0.8 4.83-1.63 6.75-1.84 1.92-0.22-8.65-0.4-23.5-0.42-14.85-0.01-25.42 0.3-23.5 0.71zm100-86.25c7.42 0.17 19.8 0.17 27.5 0 7.7-0.17 1.63-0.31-13.5-0.31-15.13 0-21.42 0.14-14 0.31zm-66-0.01c3.02 0.2 8.2 0.2 11.5 0 3.3-0.2 0.83-0.36-5.5-0.36-6.33 0-9.02 0.16-6 0.36zm-18.5 0.26l-9 0.62c15.98 0.31 19.32 0.02 19-0.62-0.27-0.55-0.61-0.91-0.75-0.81-0.14 0.1-4.3 0.47-9.25 0.81zm-96 0.1c-7.15 0.34-0.85 0.41 14 0.16 14.85-0.25 27.23-0.67 27.5-0.93 0.27-0.26-6.02-0.33-14-0.15-7.98 0.17-20.35 0.59-27.5 0.92zm-13.42-122.1l-0.38 5.5c-1.23-8.98-1.23-8.97-1.96-2-0.4 3.85-0.7 10.15-0.68 14 0.03 3.85 0.37 8.67 0.75 10.72 0.48 2.58 1.07 3.5 1.94 3 0.94-0.54 1.18-5.15 0.97-18.72-0.15-9.9-0.44-15.52-0.64-12.5z"/>
		<path id="Path 95" class="s2" d="m885.1 832.25c-0.06 3.53 0.29 5.56 0.9 5.25 0.55-0.27 0.96-1.74 0.9-3.25-0.05-1.51-0.46-3.88-0.9-5.25-0.61-1.91-0.82-1.14-0.9 3.25z"/>
		<path id="Path 96" class="s0" d="m1082.5 800.74c3.3 0.2 8.25 0.2 11 0 2.75-0.21 0.05-0.37-6-0.37-6.05 0.01-8.3 0.17-5 0.37zm-179 0.01c7.15 0.17 18.63 0.17 25.5 0 6.88-0.17 1.02-0.32-13-0.32-14.02 0-19.65 0.15-12.5 0.32zm95.5-1.01c4.67 0.19 11.88 0.19 16 0 4.13-0.18 0.3-0.34-8.5-0.34-8.8 0.01-12.17 0.16-7.5 0.34zm4.5-55.74l-70 0.52c116.58 0.4 140.5 0.14 140.5-0.52 0-0.55-0.11-0.89-0.25-0.76-0.14 0.13-31.75 0.47-70.25 0.76zm-114.5-0.75c0 0.41 8.21 0.66 18.25 0.56 10.04-0.11 15.55-0.33 12.25-0.49-3.3-0.17-11.51-0.42-18.25-0.56-6.74-0.14-12.25 0.08-12.25 0.49zm231.12-4.5c-0.07 1.24-0.91 2.52-1.87 2.84-0.96 0.33-10.82 0.89-21.91 1.25-11.09 0.36-20.39 0.89-20.66 1.16-0.27 0.27 5.87 0.38 13.66 0.22 7.79-0.15 17.31-0.49 21.16-0.77 3.85-0.27 7.83-1.04 8.84-1.72 1.14-0.76 1.67-2 1.37-3.23-0.43-1.81-0.49-1.78-0.59 0.25zm-21.12-73.02c1.92 0.21 5.3 0.21 7.5 0 2.2-0.22 0.62-0.39-3.5-0.39-4.13 0-5.92 0.17-4 0.39zm-203 0.01c3.02 0.2 8.2 0.2 11.5 0 3.3-0.2 0.83-0.36-5.5-0.36-6.33 0-9.02 0.16-6 0.36zm75-0.99c21.73 0.15 56.83 0.15 78 0 21.17-0.15 3.4-0.27-39.5-0.27-42.9 0-60.23 0.12-38.5 0.27z"/>
		<path id="Path 97" class="s0" d="m875.5 617.15c-5.5 0.47-10.23 1.09-10.5 1.39-0.27 0.29 3.77 0.17 9-0.26 5.23-0.43 68-0.78 139.5-0.78 71.5 0 127.75-0.29 125-0.65-2.75-0.37-60.8-0.64-129-0.61-68.2 0.02-128.5 0.43-134 0.91z"/>
		<path id="Path 98" class="s1" d="m1299.4 630c0 8.52 0.16 11.9 0.34 7.5 0.19-4.4 0.19-11.38 0-15.5-0.18-4.13-0.34-0.52-0.34 8z"/>
		<path id="Path 99" class="s4" d="m944.38 425.73c-10.38 8.7-40.93 34.25-67.88 56.76-26.95 22.52-61.38 51.28-76.5 63.93-15.13 12.65-39.88 33.33-55 45.97-15.13 12.64-31.1 26.1-35.5 29.91-4.4 3.82-11.78 10.6-16.39 15.07-4.77 4.62-9.15 9.86-10.14 12.13-1.16 2.67-1.97 8.15-2.44 16.5-0.39 6.87-0.66 76.17-0.61 154 0.05 77.83 0.36 143.52 0.68 146l0.58 4.5c17.3 1.16 24.91 1.49 28.07 1.5 3.54 0 6.04-0.48 6.5-1.25 0.41-0.69 0.98-68.83 1.25-151.43l0.5-150.19c4.65-4.94 16.58-15.66 29.5-27 12.92-11.35 34.52-29.91 48-41.25 13.48-11.34 55.55-46.64 93.5-78.44 37.95-31.81 76.31-64.04 85.25-71.63l16.25-13.81c-2.71-4.73-8.4-10.7-14.39-16.3-5.99-5.61-11.22-10.33-11.62-10.5-0.4-0.16-9.23 6.83-19.61 15.53z"/>
		<path id="Path 100" class="s4" d="m939.88 477.29c-1.45 1.21-10.61 8.96-20.37 17.21-9.76 8.25-19.43 16.35-21.49 18-2.06 1.65-6.62 5.42-10.13 8.37-3.52 2.96-8.56 7.23-11.22 9.5-2.66 2.27-7.2 6.15-10.09 8.63-2.89 2.48-10.17 8.53-16.17 13.46-6 4.92-12.99 10.77-15.54 13-2.55 2.22-7.89 6.74-11.87 10.04-3.99 3.3-9.39 7.8-12 10-2.61 2.2-8.29 6.99-12.62 10.64-4.34 3.65-15.53 13.1-24.88 21-9.35 7.9-17.71 15.03-18.59 15.86-0.88 0.83-7.25 6.45-14.16 12.5-6.92 6.05-12.88 11.67-13.26 12.5-0.6 1.33-0.48 1.33 1.13 0 0.99-0.83 10.82-9.38 21.84-19 11.02-9.63 31.06-26.78 44.54-38.12 13.48-11.35 52.51-44.08 86.75-72.75 34.24-28.67 62.25-52.36 62.25-52.63 0-0.27-0.34-0.48-0.75-0.46-0.41 0.02-1.93 1.03-3.37 2.25z"/>
		<path id="Path 101" class="s3" d="m959.83 414.7c-1.83 1.49-5.39 4.53-7.9 6.75-2.51 2.23-7.69 6.61-11.5 9.73-3.81 3.12-12.74 10.55-19.85 16.5-7.1 5.95-15.06 12.62-17.69 14.82-2.63 2.2-8 6.7-11.93 10-3.93 3.3-9.31 7.8-11.96 10-2.65 2.2-8.12 6.68-12.16 9.96-4.04 3.28-7.79 6.5-8.34 7.16-0.55 0.66-4.52 4.06-8.82 7.54-4.3 3.49-9.97 8.14-12.59 10.34-2.62 2.2-10.35 8.63-17.18 14.3-6.82 5.66-13.54 11.28-14.91 12.5-1.38 1.21-5.24 4.45-8.58 7.2-3.34 2.75-14.59 12.09-25 20.75-10.41 8.66-21.35 17.89-24.32 20.5-2.98 2.61-6.87 5.88-8.65 7.25-1.78 1.38-8.8 7.2-15.59 12.94-6.8 5.74-16.15 13.84-20.79 18-4.63 4.16-10.26 9.52-12.5 11.92-2.24 2.39-4.7 5.54-5.47 7-0.88 1.66-1.7 8.04-2.19 17.14-0.44 7.98-0.82 66.48-0.85 130-0.03 63.52 0.28 128.44 0.69 144.25l0.75 28.75h31.5c0.83-8.14 1.32-75.98 1.62-156l0.54-145.5c9.56-9.3 16.87-16.05 22.41-21 5.53-4.95 12.06-10.76 14.5-12.91 2.43-2.15 11.85-10.19 20.93-17.86 9.08-7.68 20.04-16.94 24.38-20.59 4.33-3.65 10.01-8.44 12.62-10.64 2.61-2.2 8.01-6.7 12-10 3.98-3.3 9.32-7.82 11.87-10.04 2.55-2.23 9.54-8.08 15.54-13 6-4.93 13.28-10.98 16.17-13.46 2.89-2.48 7.43-6.36 10.09-8.63 2.66-2.27 7.7-6.54 11.22-9.5 3.51-2.95 8.07-6.72 10.13-8.37 2.06-1.65 11.72-9.75 21.47-18 9.75-8.25 19.42-16.35 21.49-18 2.07-1.65 7.72-6.37 12.55-10.5 4.83-4.12 10.4-8.84 12.38-10.48 1.97-1.64 7.42-6.35 12.09-10.46 4.67-4.12 8.61-8.07 8.75-8.77 0.14-0.71-4.81-6.48-11-12.82-6.19-6.34-11.55-11.52-11.92-11.5-0.36 0.02-2.16 1.25-4 2.73z"/>
		<path id="Path 102" class="s3" d="m954.85 262.56c-4.59 3.61-11.46 9.12-15.26 12.25-3.8 3.13-8.53 7.06-10.5 8.74-1.97 1.68-5.62 4.57-8.09 6.42-2.48 1.86-4.95 3.89-5.5 4.51-0.55 0.63-3.7 3.32-7 5.99-3.3 2.68-9.82 8.05-14.5 11.95-4.67 3.89-9.85 8.34-11.5 9.89-1.65 1.54-4.24 3.45-5.75 4.25-1.51 0.79-2.75 1.78-2.74 2.19 0 0.41-2.33 2.55-5.17 4.75-2.85 2.2-7.02 5.65-9.26 7.66-2.24 2.02-5.74 4.94-7.77 6.5-2.02 1.56-7.61 6.21-12.41 10.34-4.81 4.12-13.5 11.43-19.32 16.24-5.82 4.8-13.44 11.1-16.93 14-3.5 2.89-8.22 6.88-10.5 8.87-2.28 1.99-11.57 9.78-20.65 17.32-9.08 7.54-19.61 16.26-23.41 19.39-3.79 3.12-9.24 7.7-12.09 10.18-2.85 2.48-8.75 7.42-13.09 10.98-4.35 3.57-10.39 8.59-13.41 11.16-3.03 2.57-12.92 10.82-22 18.33-9.08 7.51-18.53 15.4-21 17.52-2.48 2.12-17.33 14.46-33 27.41-15.67 12.96-31.34 25.93-34.82 28.83-3.47 2.9-9.73 8.19-13.91 11.77-4.18 3.58-12.59 11.04-18.69 16.58-6.09 5.55-12.32 12.07-13.83 14.5-2.02 3.24-3.05 6.69-3.84 12.92-0.63 4.87-1.41 40.14-1.84 82.5-0.42 40.7-0.67 139.25-0.57 219 0.11 81.48 0.59 146.81 1.1 149.13 0.49 2.28 1.12 4.41 1.4 4.74 0.27 0.34 9.5 1.1 20.5 1.71 11.45 0.62 63.02 1.16 120.67 1.25l100.68 0.17c1.03-6.97 1-15.75 0.6-24l-0.72-15c-27.3 1.16-71.23 1.8-115.23 2.18-67.9 0.58-80.73 0.46-84.85-0.75l-4.85-1.43c0.69-357.14 1.06-404.64 1.99-406.75 0.67-1.51 3.15-4.66 5.52-7 2.36-2.34 5.85-5.54 7.75-7.12 1.89-1.57 6.59-5.67 10.44-9.11 3.85-3.44 9.11-8 11.68-10.14 2.58-2.13 17.88-14.96 34-28.5 16.13-13.54 46.19-38.7 66.82-55.91 20.62-17.2 39.75-33.23 42.5-35.61 2.75-2.38 9.78-8.27 15.63-13.09 5.84-4.82 14.56-12.14 19.37-16.27 4.82-4.12 10.44-8.85 12.5-10.5 2.06-1.65 7.52-6.21 12.12-10.13 4.61-3.92 11.53-9.79 15.38-13.03 3.85-3.25 16.62-13.99 28.37-23.87 11.75-9.89 23.05-19.32 25.12-20.97 2.07-1.65 7.53-6.21 12.13-10.13 4.61-3.92 11.75-9.96 15.88-13.41 4.12-3.46 9.15-7.68 11.16-9.37 2.01-1.7 6.51-5.45 10-8.32 3.49-2.88 9.04-7.49 12.34-10.25 3.3-2.75 6.56-5.01 7.25-5.01 0.69-0.01 5.79 3.7 11.35 8.24 5.55 4.54 11.51 9.37 13.25 10.73 1.73 1.36 8.3 6.76 14.59 12 6.3 5.24 15.75 13.12 21 17.52 5.26 4.4 10.96 9.13 12.66 10.5 1.71 1.38 7.97 6.55 13.92 11.5 5.95 4.95 13.14 11.02 15.98 13.5 2.84 2.48 7.8 6.75 11.03 9.5 3.23 2.75 11.54 9.73 18.47 15.5 6.94 5.77 19.56 16.33 28.05 23.46 8.5 7.12 22.42 18.84 30.95 26.03 8.53 7.19 19.69 16.66 24.81 21.04 5.13 4.38 11.25 9.54 13.62 11.47 2.37 1.93 13.92 11.59 25.69 21.47 11.76 9.88 25.33 21.35 30.17 25.5 4.83 4.14 10.91 9.28 13.5 11.41 2.59 2.13 10.11 8.75 16.71 14.7 6.6 5.95 13.8 12.98 16 15.61l4 4.79c0.28 75.96 0.58 110.17 0.85 125.02 0.27 14.85 0.75 27.79 1.07 28.75 0.32 0.96 1.03 1.75 1.58 1.75 0.55 0 2.24-0.83 3.75-1.84 1.51-1.01 6.8-3.44 11.75-5.4 4.95-1.95 11.81-4.61 15.24-5.91 6.21-2.34 6.23-2.36 6.23-6.35 0-2.2-0.44-32.35-0.99-67-0.54-34.65-1.43-69.41-1.98-77.25-0.55-7.84-1.45-15.37-2-16.75-0.55-1.37-3.64-5.31-6.87-8.75-3.22-3.44-9.82-9.62-14.66-13.75-4.84-4.12-10.92-9.3-13.51-11.5-2.59-2.2-8.02-6.78-12.08-10.19-4.06-3.4-17.51-14.58-29.88-24.84-12.38-10.26-23.63-19.63-25.01-20.82-1.38-1.18-4.98-4.14-8-6.57-3.02-2.44-6.62-5.47-7.99-6.74-1.38-1.28-17.52-14.81-35.88-30.08-18.36-15.27-35.06-29.11-37.11-30.76-2.06-1.65-9.31-7.65-16.12-13.33-6.82-5.68-18.64-15.58-26.29-22-7.64-6.42-16.03-13.47-18.63-15.67-2.59-2.2-7.82-6.58-11.6-9.74-3.78-3.15-15.61-13.05-26.29-22-10.67-8.94-22.16-18.51-25.52-21.26-3.36-2.75-7-5.76-8.09-6.68-1.08-0.92-7.82-6.49-14.97-12.38-7.15-5.89-15.7-12.75-19-15.26-3.3-2.5-7.46-5.82-9.25-7.37-1.79-1.54-3.65-2.81-4.15-2.81-0.49 0-4.65 2.95-9.25 6.56z"/>
		<path id="Path 103" class="s4" d="m952.94 262.26c-5.81 4.53-15.48 12.28-21.5 17.21-6.02 4.94-24.15 20.02-40.3 33.5-16.15 13.49-31.07 25.88-33.15 27.53-2.08 1.65-14.46 12-27.51 23-13.05 11-25.42 21.35-27.48 23-2.06 1.65-42.85 35.6-90.63 75.45-47.78 39.85-96.1 80.11-107.37 89.47-11.28 9.36-25.68 21.57-32 27.14-6.33 5.57-13.93 12.79-16.91 16.03-2.97 3.25-6.04 7.49-6.83 9.41-0.79 1.92-1.93 10.02-2.54 18-0.75 9.9-1.12 82.17-1.16 228-0.05 168.26 0.2 214.29 1.19 217.25 1.03 3.08 1.83 3.85 4.5 4.32 1.79 0.31 11.12 0.87 20.75 1.25 9.62 0.37 25.37 0.46 35 0.18 17.05-0.49 16.68-0.52-14.5-1.26-17.6-0.42-34.59-1.09-37.75-1.5-3.66-0.47-5.96-1.29-6.33-2.24-0.32-0.83-0.98-8.25-1.47-16.5-0.49-8.25-0.82-74.85-0.74-148 0.09-73.15 0.49-166.3 0.89-207 0.41-42.57 1.18-77.61 1.81-82.5 0.79-6.23 1.82-9.68 3.84-12.92 1.51-2.43 7.74-8.95 13.83-14.5 6.1-5.54 14.51-13 18.69-16.58 4.18-3.58 10.44-8.87 13.91-11.77 3.48-2.9 19.14-15.87 34.82-28.83 15.67-12.95 30.52-25.29 33-27.41 2.47-2.12 11.92-10.01 21-17.52 9.07-7.51 18.97-15.76 22-18.33 3.02-2.57 9.06-7.59 13.41-11.16 4.34-3.56 10.24-8.5 13.09-10.98 2.85-2.48 8.3-7.06 12.09-10.18 3.8-3.13 14.33-11.85 23.41-19.39 9.07-7.54 18.37-15.33 20.65-17.32 2.28-1.99 7-5.98 10.5-8.87 3.49-2.9 11.11-9.2 16.93-14 5.82-4.81 14.51-12.12 19.32-16.24 4.8-4.13 10.39-8.78 12.41-10.34 2.03-1.56 5.53-4.48 7.77-6.5 2.24-2.01 6.41-5.46 9.26-7.66 2.84-2.2 5.17-4.34 5.17-4.75-0.01-0.41 1.23-1.4 2.74-2.19 1.51-0.8 4.1-2.71 5.75-4.25 1.65-1.55 6.83-6 11.5-9.89 4.68-3.9 11.2-9.27 14.5-11.95 3.3-2.67 6.45-5.37 7-6.01 0.55-0.63 3.7-3.23 7-5.78 3.3-2.55 8.7-6.89 12-9.65 3.3-2.75 9.54-7.83 13.87-11.27 4.33-3.44 9.6-7.61 11.71-9.26 3.51-2.74 4.01-2.87 5.76-1.5 1.06 0.82 5.47 4.25 9.79 7.61 4.33 3.36 13.72 10.93 20.87 16.82 7.15 5.89 13.89 11.47 14.97 12.39 1.09 0.92 4.73 3.93 8.09 6.68 3.36 2.75 14.85 12.32 25.52 21.26 10.68 8.95 22.51 18.85 26.29 22 3.78 3.16 9.01 7.54 11.6 9.74 2.6 2.2 10.99 9.25 18.63 15.67 7.65 6.42 19.47 16.32 26.29 22 6.81 5.68 14.06 11.68 16.12 13.33 2.05 1.65 18.75 15.49 37.11 30.76 18.36 15.27 34.5 28.8 35.88 30.08 1.37 1.27 4.97 4.3 7.99 6.74 3.02 2.43 6.62 5.39 8 6.57 1.38 1.19 12.63 10.56 25.01 20.82 12.37 10.26 25.82 21.44 29.88 24.84 4.06 3.41 9.49 7.99 12.08 10.19 2.59 2.2 8.67 7.37 13.51 11.5 4.84 4.12 11.44 10.31 14.66 13.75 3.23 3.44 6.32 7.37 6.87 8.75 0.55 1.37 1.45 8.91 2 16.75 0.55 7.84 1.44 42.6 1.98 77.25 0.55 34.65 0.99 64.8 0.99 67 0 3.99-0.02 4.01-6.23 6.35-3.43 1.3-10.29 3.96-15.24 5.91-4.95 1.96-10.24 4.39-11.75 5.4-1.51 1.01-3.2 1.84-3.75 1.84-0.55 0-1.18-0.56-1.4-1.25-0.22-0.69-0.69-8.67-1.05-17.75-0.35-9.08-0.76-43.5-0.9-76.5l-0.26-60c-6.11-7.44-13.29-14.47-19.89-20.42-6.6-5.95-14.12-12.57-16.71-14.7-2.59-2.13-8.67-7.27-13.5-11.41-4.84-4.15-18.41-15.62-30.17-25.5-11.77-9.88-23.32-19.54-25.69-21.47-2.37-1.93-8.49-7.09-13.62-11.47-5.12-4.38-16.28-13.85-24.81-21.04-8.53-7.19-22.45-18.91-30.95-26.03-8.49-7.13-21.11-17.69-28.05-23.46-6.93-5.77-15.24-12.75-18.47-15.5-3.23-2.75-8.19-7.02-11.03-9.5-2.84-2.48-10.03-8.55-15.98-13.5-5.95-4.95-12.21-10.12-13.92-11.5-1.7-1.37-7.4-6.1-12.66-10.5-5.25-4.4-14.7-12.28-21-17.52-6.29-5.24-12.86-10.64-14.59-12-1.74-1.36-7.7-6.19-13.25-10.73-5.56-4.54-10.66-8.25-11.35-8.24-0.69 0-3.95 2.26-7.25 5.01-3.3 2.76-8.85 7.37-12.34 10.25-3.49 2.87-7.99 6.62-10 8.32-2.01 1.69-7.04 5.91-11.16 9.37-4.13 3.45-11.27 9.49-15.88 13.41-4.6 3.92-10.06 8.48-12.13 10.13-2.07 1.65-13.37 11.08-25.12 20.97-11.75 9.88-24.52 20.62-28.37 23.87-3.85 3.24-10.77 9.11-15.38 13.03-4.6 3.92-10.06 8.48-12.12 10.13-2.06 1.65-7.68 6.37-12.5 10.5-4.81 4.12-13.53 11.45-19.37 16.27-5.85 4.82-12.88 10.71-15.63 13.09-2.75 2.38-21.88 18.41-42.5 35.61-20.63 17.21-50.69 42.37-66.82 55.91-16.12 13.54-31.42 26.37-34 28.5-2.57 2.14-7.83 6.7-11.68 10.14-3.85 3.44-8.55 7.54-10.44 9.11-1.9 1.58-5.39 4.78-7.75 7.12-2.37 2.34-4.85 5.49-5.52 7-0.93 2.11-1.3 49.61-1.6 204.75l-0.39 202c8.97 2.64 21.8 2.76 89.7 2.18 44-0.38 87.99-1.02 97.75-1.43l17.76-0.75c0.26 16.4 0.32 16.61 0.92 11.5 0.35-3.03 0.45-7.08 0.22-9l-0.42-3.5c-75.35 1.16-120.41 1.61-148.73 1.75-42.97 0.21-51.91 0.01-54-1.17l-2.5-1.42c1.28-300.05 1.96-391.59 2.33-397.01 0.66-9.75 0.71-9.89 4.28-13 1.99-1.73 14.59-12.61 28-24.16 13.41-11.56 44.61-37.89 69.33-58.5 24.72-20.62 58.02-48.46 74-61.87 15.98-13.41 38.24-32.08 49.46-41.5 11.22-9.42 37.77-31.75 59-49.63 21.23-17.88 48.05-40.39 59.6-50.04 11.55-9.64 23.02-19.18 25.5-21.21 2.47-2.02 5.06-3.69 5.75-3.71 0.69-0.02 8.56 5.92 17.5 13.18 8.94 7.27 35.11 28.99 58.16 48.25 23.05 19.27 73.67 61.77 112.5 94.45 38.82 32.68 81.84 68.95 95.59 80.6 13.75 11.66 28.93 24.75 33.73 29.09 4.8 4.35 10.53 10.04 12.75 12.65l4.02 4.75c0.03 88.74 0.5 123.95 1.05 135.5 0.56 11.55 1.22 21.23 1.48 21.5 0.26 0.27 4.41-1.36 9.22-3.63 4.81-2.27 13.88-6.1 20.15-8.5l11.39-4.37c-1.07-93-1.81-129.23-2.32-140.5-0.52-11.27-1.44-22.3-2.06-24.5-0.84-3.04-3.56-6.42-11.26-14.04-5.58-5.52-53.35-46.05-106.15-90.06-52.8-44.01-108.83-90.73-124.5-103.83-15.68-13.1-42.9-35.82-60.5-50.5-17.6-14.68-38.08-31.61-45.51-37.63-7.43-6.02-15.98-12.84-19-15.16-3.02-2.32-5.72-4.24-5.99-4.25-0.28-0.01-5.25 3.69-11.06 8.23z"/>
	</g>
</svg>